#Wavefront OBJ file created by Hexagon 2 
mtllib deci01.mtl
g Shape10
usemtl def_surf_mat
# 240 
v -6.08352 3.18559 12.1958 
v -6.08352 11.1386 12.1958 
v -6.08047 3.18559 12.1568 
v -6.08047 3.18559 12.2348 
v -6.08047 11.1386 12.1568 
v -6.08047 11.1386 12.2348 
v -6.07624 11.1986 12.1958 
v -6.07129 3.18559 12.1185 
v -6.07129 3.18559 12.273 
v -6.07129 11.1386 12.1185 
v -6.07129 11.1386 12.273 
v -6.06818 11.2174 12.1606 
v -6.06772 11.2184 12.2319 
v -6.05481 11.255 12.1958 
v -6.0526 11.236 12.1246 
v -6.0526 11.236 12.2669 
v -6.03202 11.2881 12.1679 
v -6.03202 11.2881 12.2236 
v -6.00165 11.3154 12.1411 
v -6.00165 11.3154 12.2504 
v -5.9856 11.3371 12.1946 
v -5.92607 11.369 12.1657 
v -5.92607 11.369 12.2258 
v -5.83352 11.3886 12.1958 
v -5.27138 3.18559 9.65663 
v -5.27138 3.18559 14.7349 
v -5.27138 11.1386 9.65663 
v -5.27138 11.1386 14.7349 
v -5.25631 3.18559 9.62028 
v -5.25631 3.18559 14.7712 
v -5.25631 11.1386 9.62028 
v -5.25631 11.1386 14.7712 
v -5.25269 11.236 9.6627 
v -5.25269 11.236 14.7288 
v -5.2443 11.2184 9.62543 
v -5.24415 11.2174 14.7671 
v -5.23587 3.18559 9.58694 
v -5.23587 3.18559 14.8046 
v -5.23587 11.1386 9.58694 
v -5.23587 11.1386 14.8046 
v -5.22997 11.1986 9.59122 
v -5.22997 11.1986 14.8003 
v -5.21263 11.255 9.60382 
v -5.21263 11.255 14.7877 
v -5.21057 11.2881 9.63974 
v -5.21057 11.2881 14.7518 
v -5.21047 3.18559 9.55719 
v -5.21047 3.18559 14.8343 
v -5.21047 11.1386 9.55719 
v -5.21047 11.1386 14.8343 
v -5.20276 11.2174 9.56747 
v -5.20186 11.2184 14.8245 
v -5.20174 11.3154 9.67926 
v -5.20174 11.3154 14.7123 
v -5.18056 3.18559 9.53163 
v -5.18056 3.18559 14.8599 
v -5.18056 11.1386 9.53163 
v -5.18056 11.1386 14.8599 
v -5.17783 11.2881 9.59468 
v -5.17783 11.2881 14.7968 
v -5.16901 11.236 9.54752 
v -5.16901 11.236 14.844 
v -5.15733 11.3371 14.7461 
v -5.15596 11.3371 9.64355 
v -5.13752 11.3154 9.59087 
v -5.13752 11.3154 14.8007 
v -5.12616 11.369 9.70381 
v -5.12616 11.369 14.6877 
v -5.09081 11.369 9.65516 
v -5.09081 11.369 14.7364 
v -5.03361 11.3886 9.73388 
v -5.03361 11.3886 14.6576 
v -3.08636 3.18559 8.01011 
v -3.08636 3.18559 16.3814 
v -3.08636 11.1386 8.01011 
v -3.08636 11.1386 16.3814 
v -3.07481 11.236 8.026 
v -3.07481 11.236 16.3655 
v -3.0528 3.18559 7.98955 
v -3.0528 3.18559 16.402 
v -3.0528 11.1386 7.98955 
v -3.0528 11.1386 16.402 
v -3.04611 11.2184 8.00078 
v -3.04541 11.2174 16.3915 
v -3.04332 11.3154 8.06934 
v -3.04332 11.3154 16.3222 
v -3.02723 11.2881 8.03218 
v -3.02723 11.2881 16.3593 
v -3.01666 3.18559 7.9746 
v -3.01666 3.18559 16.4169 
v -3.01667 11.1386 7.9746 
v -3.01666 11.1386 16.4169 
v -3.01441 11.1986 7.98152 
v -3.01441 11.1986 16.41 
v -3.00779 11.255 8.00191 
v -3.00779 11.255 16.3896 
v -2.99661 11.369 8.13363 
v -2.99661 11.369 16.2579 
v -2.98751 11.3371 16.3234 
v -2.9853 11.3371 8.06736 
v -2.97864 3.18559 7.96546 
v -2.97864 3.18559 16.4261 
v -2.97864 11.1386 7.96546 
v -2.97864 11.1386 16.4261 
v -2.97844 11.2174 7.9783 
v -2.97745 11.2184 16.4131 
v -2.97427 11.2881 8.01497 
v -2.97427 11.2881 16.3766 
v -2.93941 3.18559 7.96236 
v -2.93941 3.18559 16.4292 
v -2.93941 11.1386 7.96236 
v -2.93941 11.1386 16.4292 
v -2.93941 11.236 7.98201 
v -2.93941 11.236 16.4095 
v -2.93941 11.3154 8.03558 
v -2.93941 11.3154 16.3559 
v -2.93941 11.369 8.11505 
v -2.93941 11.369 16.2765 
v -2.93941 11.3886 8.21236 
v -2.93941 11.3886 16.1792 
v -0.350837 3.18559 7.96236 
v -0.350837 3.18559 16.4292 
v -0.350837 11.1386 7.96236 
v -0.350837 11.1386 16.4292 
v -0.350837 11.236 7.98201 
v -0.350837 11.236 16.4095 
v -0.350837 11.3154 8.03558 
v -0.350836 11.3154 16.3559 
v -0.350837 11.369 8.11505 
v -0.350836 11.369 16.2765 
v -0.350837 11.3886 8.21236 
v -0.350836 11.3886 16.1792 
v -0.315981 11.2881 8.01497 
v -0.31598 11.2881 16.3766 
v -0.3128 11.2184 7.97847 
v -0.311809 11.2174 16.4132 
v -0.31161 3.18559 7.96546 
v -0.31161 3.18559 16.4261 
v -0.31161 11.1386 7.96546 
v -0.31161 11.1386 16.4261 
v -0.304947 11.3371 16.3242 
v -0.302736 11.3371 8.06808 
v -0.293639 11.369 8.13363 
v -0.293638 11.369 16.2579 
v -0.282457 11.255 8.00191 
v -0.282456 11.255 16.3896 
v -0.275834 11.1986 7.98152 
v -0.275834 11.1986 16.41 
v -0.273583 3.18559 7.9746 
v -0.273582 3.18559 16.4169 
v -0.273583 11.1386 7.9746 
v -0.273582 11.1386 16.4169 
v -0.263016 11.2881 8.03218 
v -0.263015 11.2881 16.3593 
v -0.24693 11.3154 8.06934 
v -0.24693 11.3154 16.3222 
v -0.244837 11.2174 8.00007 
v -0.244133 11.2184 16.3907 
v -0.237446 3.18559 7.98955 
v -0.237445 3.18559 16.402 
v -0.237446 11.1386 7.98955 
v -0.237445 11.1386 16.402 
v -0.215439 11.236 8.026 
v -0.215438 11.236 16.3655 
v -0.203891 3.18559 8.01011 
v -0.20389 3.18559 16.3814 
v -0.203891 11.1386 8.01011 
v -0.20389 11.1386 16.3814 
v 1.74336 11.3886 9.73388 
v 1.74336 11.3886 14.6576 
v 1.80056 11.369 9.65516 
v 1.80056 11.369 14.7364 
v 1.83591 11.369 9.70381 
v 1.83591 11.369 14.6877 
v 1.84727 11.3154 9.59087 
v 1.84727 11.3154 14.8007 
v 1.86572 11.3371 14.748 
v 1.86708 11.3371 9.64543 
v 1.87876 11.236 9.54752 
v 1.87876 11.236 14.844 
v 1.88758 11.2881 9.59468 
v 1.88758 11.2881 14.7968 
v 1.89031 3.18559 9.53163 
v 1.89031 3.18559 14.8599 
v 1.89031 11.1386 9.53163 
v 1.89031 11.1386 14.8599 
v 1.91149 11.3154 9.67926 
v 1.91149 11.3154 14.7123 
v 1.91161 11.2184 9.56702 
v 1.91251 11.2174 14.8241 
v 1.92022 3.18559 9.55719 
v 1.92022 3.18559 14.8343 
v 1.92022 11.1386 9.55719 
v 1.92022 11.1386 14.8343 
v 1.92032 11.2881 9.63974 
v 1.92032 11.2881 14.7518 
v 1.92238 11.255 9.60382 
v 1.92238 11.255 14.7877 
v 1.93972 11.1986 9.59122 
v 1.93972 11.1986 14.8003 
v 1.94562 3.18559 9.58694 
v 1.94562 3.18559 14.8046 
v 1.94562 11.1386 9.58694 
v 1.94562 11.1386 14.8046 
v 1.9539 11.2174 9.62444 
v 1.95405 11.2184 14.7661 
v 1.96244 11.236 9.6627 
v 1.96244 11.236 14.7288 
v 1.96606 3.18559 9.62028 
v 1.96606 3.18559 14.7712 
v 1.96606 11.1386 9.62028 
v 1.96606 11.1386 14.7712 
v 1.98113 3.18559 9.65663 
v 1.98113 3.18559 14.7349 
v 1.98113 11.1386 9.65663 
v 1.98113 11.1386 14.7349 
v 2.54328 11.3886 12.1958 
v 2.63582 11.369 12.1657 
v 2.63582 11.369 12.2258 
v 2.69536 11.3371 12.1969 
v 2.7114 11.3154 12.1411 
v 2.7114 11.3154 12.2504 
v 2.74177 11.2881 12.1679 
v 2.74177 11.2881 12.2236 
v 2.76236 11.236 12.1246 
v 2.76236 11.236 12.2669 
v 2.76456 11.255 12.1958 
v 2.77747 11.2184 12.1597 
v 2.77794 11.2174 12.231 
v 2.78104 3.18559 12.1185 
v 2.78104 3.18559 12.273 
v 2.78104 11.1386 12.1185 
v 2.78104 11.1386 12.273 
v 2.78599 11.1986 12.1958 
v 2.79022 3.18559 12.1568 
v 2.79022 3.18559 12.2348 
v 2.79022 11.1386 12.1568 
v 2.79022 11.1386 12.2348 
v 2.79328 3.18559 12.1958 
v 2.79328 11.1386 12.1958 
# 241 
vn -1 2.15075e-008 -1.08365e-007 
vn -0.997416 0.071837 0.000594081 
vn -0.987726 3.62589e-009 -0.156195 
vn -0.987725 1.82469e-008 0.156201 
vn -0.981314 0.0813891 -0.174354 
vn -0.981182 0.0817841 0.174908 
vn -0.962488 -1.6093e-008 -0.271326 
vn -0.962486 3.84737e-009 0.271332 
vn -0.958922 0.283671 8.57824e-005 
vn -0.955203 0.0953267 -0.280177 
vn -0.955212 0.0953462 0.280141 
vn -0.938152 -1.72458e-008 -0.346224 
vn -0.938152 -8.00403e-009 0.346225 
vn -0.937461 0.0953277 0.334782 
vn -0.937444 0.0953452 -0.334824 
vn -0.930478 0.318915 -0.180289 
vn -0.929967 0.319938 0.181112 
vn -0.896602 0.0817834 -0.435221 
vn -0.896384 0.0813906 0.435743 
vn -0.8909 -1.05926e-008 -0.454199 
vn -0.890897 -5.08621e-009 0.454205 
vn -0.889193 0.370148 -0.268935 
vn -0.88877 0.370628 0.269671 
vn -0.877537 0.370629 -0.304241 
vn -0.877451 0.370147 0.305075 
vn -0.867403 0.497606 -0.000683283 
vn -0.858813 0.319941 -0.400099 
vn -0.85874 0.318921 0.401066 
vn -0.809021 -1.40879e-008 -0.58778 
vn -0.809017 1.0391e-008 0.587786 
vn -0.807279 0.0718366 -0.585782 
vn -0.806576 0.0718395 0.586749 
vn -0.789733 0.601881 -0.118577 
vn -0.789332 0.602639 0.117392 
vn -0.775838 0.283673 -0.563564 
vn -0.775726 0.283683 0.563714 
vn -0.708597 0.601885 0.368273 
vn -0.707583 0.602643 -0.368982 
vn -0.707273 -1.49824e-008 -0.70694 
vn -0.707277 3.5409e-009 0.706937 
vn -0.702134 0.497615 0.5093 
vn -0.701347 0.497609 -0.51039 
vn -0.700136 0.684812 -0.202095 
vn -0.699741 0.685412 0.201428 
vn -0.69141 0.081388 -0.717864 
vn -0.690983 0.081785 0.71823 
vn -0.68521 0.684812 0.248031 
vn -0.684497 0.685414 -0.248338 
vn -0.646795 0.318919 -0.692782 
vn -0.645904 0.319944 0.693141 
vn -0.61918 -6.49842e-009 -0.785249 
vn -0.619185 -4.79129e-009 0.785245 
vn -0.608119 0.0953448 0.788099 
vn -0.608083 0.0953252 -0.78813 
vn -0.586763 0.809757 -0.00143034 
vn -0.569584 0.60264 0.558927 
vn -0.569209 0.601887 -0.560119 
vn -0.561634 0.0953269 0.821876 
vn -0.561602 0.0953445 -0.821896 
vn -0.561285 0.370152 -0.740234 
vn -0.560521 0.37063 0.740574 
vn -0.555476 -1.31345e-008 -0.831532 
vn -0.555469 5.98157e-009 0.831537 
vn -0.531112 0.370627 -0.761942 
vn -0.530542 0.370152 0.76257 
vn -0.475542 0.809754 0.343741 
vn -0.47386 0.809758 -0.346047 
vn -0.469548 0.0817846 -0.879111 
vn -0.469055 0.081392 0.87941 
vn -0.45962 0.319941 -0.828485 
vn -0.458988 0.318919 0.829229 
vn -0.45378 -1.39109e-008 -0.891114 
vn -0.45376 1.0995e-009 0.891124 
vn -0.447707 0.685414 0.574253 
vn -0.447626 0.684817 -0.575027 
vn -0.419201 0.903096 0.0932134 
vn -0.419129 0.902981 -0.0946375 
vn -0.40855 0.684816 0.603419 
vn -0.4078 0.685411 -0.60325 
vn -0.394709 0.90298 0.169797 
vn -0.393929 0.903096 -0.170991 
vn -0.356799 0.601883 0.714445 
vn -0.355566 0.602639 -0.714423 
vn -0.30901 -6.72027e-009 -0.951059 
vn -0.309002 -1.42618e-009 0.951061 
vn -0.308779 0.0718382 -0.948417 
vn -0.30765 0.0718405 0.948784 
vn -0.296406 0.283678 -0.911959 
vn -0.296247 0.283676 0.912012 
vn -0.284355 0.903094 0.321812 
vn -0.283454 0.902981 -0.322923 
vn -0.26869 0.497608 0.824737 
vn -0.267401 0.497611 -0.825155 
vn -0.219524 0.902982 0.369368 
vn -0.218188 0.903096 -0.369881 
vn -0.182677 0.809758 0.557604 
vn -0.179962 0.809757 -0.558487 
vn -0.17573 0.984438 4.56786e-006 
vn -0.156664 -2.33779e-009 -0.987652 
vn -0.156648 4.89401e-010 0.987654 
vn -0.142169 0.984438 -0.103291 
vn -0.142169 0.984438 0.103293 
vn -0.13741 0.081388 -0.987165 
vn -0.136845 0.0817832 0.987211 
vn -0.132279 0.602641 0.786973 
vn -0.131275 0.601884 -0.78772 
vn -0.116063 0.318917 -0.94065 
vn -0.11514 0.319942 0.940415 
vn -0.0543023 0.984438 -0.167129 
vn -0.0543029 0.984439 0.167128 
vn -0.0408925 0.903096 0.427488 
vn -0.0395089 0.902982 -0.427859 
vn -0.0393765 3.25572e-010 -0.999224 
vn -0.0393547 -2.31591e-010 0.999225 
vn -0.0287368 0.0953423 0.99503 
vn -0.0287058 0.0953264 -0.995032 
vn -0.0246677 0.685414 0.727736 
vn -0.0241493 0.684815 -0.728316 
vn -0.0189976 0.370149 -0.928778 
vn -0.0181762 0.370628 0.928603 
vn 2.75935e-017 -1 -3.9249e-008 
vn 0.018176 0.370628 -0.928604 
vn 0.0189994 0.370151 0.928777 
vn 0.0241499 0.684815 0.728316 
vn 0.024661 0.685412 -0.727737 
vn 0.028701 0.0953252 0.995032 
vn 0.0287546 0.0953462 -0.995029 
vn 0.0393662 -2.76491e-010 0.999225 
vn 0.0393808 -1.83829e-011 -0.999224 
vn 0.0395107 0.902979 0.427864 
vn 0.0408913 0.903096 -0.427487 
vn 0.0543034 0.984439 -0.167128 
vn 0.054305 0.984438 0.167133 
vn 0.115127 0.319941 -0.940417 
vn 0.116079 0.318919 0.940647 
vn 0.131278 0.601883 0.78772 
vn 0.132269 0.602642 -0.786974 
vn 0.13686 0.0817846 -0.987208 
vn 0.137426 0.0813912 0.987162 
vn 0.142169 0.984438 -0.103291 
vn 0.142169 0.984438 0.103294 
vn 0.156676 8.12044e-010 -0.98765 
vn 0.156679 -1.7385e-009 0.98765 
vn 0.175729 0.984439 1.46037e-006 
vn 0.179959 0.809756 0.558489 
vn 0.182681 0.809759 -0.557601 
vn 0.21819 0.903095 0.369883 
vn 0.219524 0.902983 -0.369366 
vn 0.26741 0.497604 0.825156 
vn 0.268689 0.497613 -0.824735 
vn 0.283453 0.90298 0.322926 
vn 0.284352 0.903096 -0.321809 
vn 0.29624 0.283678 -0.912013 
vn 0.296424 0.283671 0.911956 
vn 0.307656 0.0718385 -0.948782 
vn 0.30881 0.0718392 0.948407 
vn 0.309016 2.11437e-009 -0.951057 
vn 0.309057 -4.01095e-009 0.951043 
vn 0.355567 0.602638 0.714422 
vn 0.35681 0.601886 -0.714436 
vn 0.393931 0.903095 0.170993 
vn 0.39471 0.902981 -0.169794 
vn 0.407801 0.685412 0.603249 
vn 0.408555 0.684816 -0.603415 
vn 0.419126 0.902982 0.09464 
vn 0.419202 0.903095 -0.0932099 
vn 0.447633 0.684812 0.575028 
vn 0.447705 0.685413 -0.574255 
vn 0.453778 2.20544e-009 -0.891115 
vn 0.453803 -4.73467e-009 0.891102 
vn 0.459004 0.318919 -0.82922 
vn 0.459626 0.319934 0.828484 
vn 0.469072 0.0813894 -0.879401 
vn 0.46956 0.0817815 0.879105 
vn 0.473861 0.809757 0.34605 
vn 0.475539 0.809757 -0.343739 
vn 0.530552 0.37015 -0.762564 
vn 0.531114 0.370625 0.761941 
vn 0.555475 1.77136e-009 -0.831533 
vn 0.555477 -2.58989e-009 0.831532 
vn 0.560524 0.370628 -0.740573 
vn 0.561293 0.370144 0.740232 
vn 0.561604 0.0953431 0.821894 
vn 0.561644 0.0953262 -0.821869 
vn 0.569213 0.601882 0.56012 
vn 0.569575 0.60264 -0.558936 
vn 0.586765 0.809756 0.00142978 
vn 0.608084 0.0953249 0.788128 
vn 0.608119 0.0953451 -0.7881 
vn 0.619177 3.75342e-010 -0.785251 
vn 0.61918 1.28212e-009 0.785249 
vn 0.645898 0.319941 -0.693147 
vn 0.646802 0.318912 0.692779 
vn 0.684501 0.68541 0.248338 
vn 0.685209 0.684814 -0.24803 
vn 0.690979 0.0817848 -0.718234 
vn 0.691409 0.0813869 0.717864 
vn 0.699741 0.685412 -0.201428 
vn 0.700132 0.684817 0.202093 
vn 0.701345 0.49761 0.510391 
vn 0.702134 0.497609 -0.509306 
vn 0.707267 1.7785e-009 -0.706947 
vn 0.70727 4.53039e-009 0.706944 
vn 0.707587 0.602639 0.368982 
vn 0.7086 0.601883 -0.36827 
vn 0.775726 0.283676 -0.563717 
vn 0.775841 0.283673 0.56356 
vn 0.789331 0.60264 -0.117396 
vn 0.789732 0.601884 0.118571 
vn 0.806576 0.0718384 -0.586749 
vn 0.807279 0.0718355 0.585782 
vn 0.809015 -2.81287e-009 -0.587787 
vn 0.809016 -3.03908e-009 0.587787 
vn 0.858746 0.318917 -0.401059 
vn 0.858818 0.319936 0.400091 
vn 0.867401 0.49761 0.00067461 
vn 0.877451 0.370149 -0.305074 
vn 0.877539 0.370625 0.304239 
vn 0.888772 0.370628 -0.269666 
vn 0.88919 0.370151 0.268941 
vn 0.890899 -3.84041e-009 -0.454202 
vn 0.890899 -6.59362e-009 0.454201 
vn 0.896386 0.0813889 -0.435737 
vn 0.896603 0.0817813 0.435218 
vn 0.929965 0.319942 -0.181113 
vn 0.930476 0.318918 0.180292 
vn 0.937445 0.0953438 0.334822 
vn 0.937462 0.0953266 -0.33478 
vn 0.938152 6.9281e-009 -0.346224 
vn 0.938152 -4.90596e-009 0.346223 
vn 0.955202 0.0953266 0.280182 
vn 0.955214 0.0953444 -0.280134 
vn 0.95892 0.283678 -9.38549e-005 
vn 0.962487 5.87396e-009 -0.271329 
vn 0.962487 -4.01579e-009 0.271328 
vn 0.981183 0.081783 -0.174904 
vn 0.981313 0.0813886 0.17436 
vn 0.987726 4.53809e-009 -0.156198 
vn 0.987726 4.53799e-009 0.156197 
vn 0.997416 0.0718372 -0.000596087 
vn 1 8.73154e-009 -8.51976e-007 
usemtl def_surf_mat
f 221//198 218//166 220//187 223//208 
f 218//166 217//144 219//165 220//187 
f 223//208 220//187 224//209 227//216 
f 220//187 219//165 222//199 224//209 
f 222//199 226//220 229//226 224//209 
f 226//220 233//231 238//237 229//226 
f 224//209 229//226 234//233 227//216 
f 229//226 238//237 240//240 234//233 
f 240//240 237//236 228//225 234//233 
f 237//236 232//232 225//219 228//225 
f 234//233 228//225 223//208 227//216 
f 228//225 225//219 221//198 223//208 
f 187//195 207//217 205//214 195//205 
f 207//217 215//228 211//223 205//214 
f 195//205 205//214 199//206 197//201 
f 205//214 211//223 203//210 199//206 
f 203//210 193//196 189//192 199//206 
f 193//196 185//189 179//181 189//192 
f 199//206 189//192 181//186 197//201 
f 189//192 179//181 175//168 181//186 
f 175//168 171//152 178//176 181//186 
f 171//152 169//140 173//162 178//176 
f 181//186 178//176 195//205 197//201 
f 178//176 173//162 187//195 195//205 
f 155//164 163//177 157//171 153//160 
f 163//177 167//184 161//173 157//171 
f 153//160 157//171 147//153 145//150 
f 157//171 161//173 151//155 147//153 
f 151//155 139//138 135//134 147//153 
f 139//138 123//127 125//122 135//134 
f 147//153 135//134 133//137 145//150 
f 135//134 125//122 127//125 133//137 
f 127//125 129//131 142//146 133//137 
f 129//131 131//132 143//148 142//146 
f 133//137 142//146 153//160 145//150 
f 142//146 143//148 155//164 153//160 
f 115//118 113//119 105//107 107//106 
f 113//119 111//116 103//103 105//107 
f 107//106 105//107 93//88 95//93 
f 105//107 103//103 91//86 93//88 
f 91//86 81//68 83//70 93//88 
f 81//68 75//59 77//64 83//70 
f 93//88 83//70 87//83 95//93 
f 83//70 77//64 85//79 87//83 
f 85//79 97//95 100//97 87//83 
f 97//95 119//109 117//112 100//97 
f 87//83 100//97 107//106 95//93 
f 100//97 117//112 115//118 107//106 
f 65//75 61//60 51//49 59//57 
f 61//60 57//54 49//45 51//49 
f 59//57 51//49 41//35 43//42 
f 51//49 49//45 39//31 41//35 
f 39//31 31//18 35//27 41//35 
f 31//18 27//15 33//24 35//27 
f 41//35 35//27 45//38 43//42 
f 35//27 33//24 53//48 45//38 
f 53//48 67//81 64//67 45//38 
f 67//81 71//101 69//91 64//67 
f 45//38 64//67 59//57 43//42 
f 64//67 69//91 65//75 59//57 
f 19//43 15//22 12//16 17//33 
f 15//22 10//10 5//5 12//16 
f 17//33 12//16 7//9 14//26 
f 12//16 5//5 2//2 7//9 
f 2//2 6//6 13//17 7//9 
f 6//6 11//11 16//23 13//17 
f 7//9 13//17 18//34 14//26 
f 13//17 16//23 20//44 18//34 
f 20//44 23//76 21//55 18//34 
f 23//76 24//98 22//77 21//55 
f 18//34 21//55 17//33 14//26 
f 21//55 22//77 19//43 17//33 
f 54//47 34//25 36//28 46//37 
f 34//25 28//14 32//19 36//28 
f 46//37 36//28 42//36 44//41 
f 36//28 32//19 40//32 42//36 
f 40//32 50//46 52//50 42//36 
f 50//46 58//53 62//61 52//50 
f 42//36 52//50 60//56 44//41 
f 52//50 62//61 66//74 60//56 
f 66//74 70//90 63//66 60//56 
f 70//90 72//102 68//80 63//66 
f 60//56 63//66 46//37 44//41 
f 63//66 68//80 54//47 46//37 
f 86//78 78//65 84//71 88//82 
f 78//65 76//58 82//69 84//71 
f 88//82 84//71 94//89 96//92 
f 84//71 82//69 92//87 94//89 
f 92//87 104//104 106//108 94//89 
f 104//104 112//115 114//120 106//108 
f 94//89 106//108 108//105 96//92 
f 106//108 114//120 116//117 108//105 
f 116//117 118//111 99//96 108//105 
f 118//111 120//110 98//94 99//96 
f 108//105 99//96 88//82 96//92 
f 99//96 98//94 86//78 88//82 
f 128//124 126//123 136//135 134//136 
f 126//123 124//126 140//139 136//135 
f 134//136 136//135 148//154 146//149 
f 136//135 140//139 152//156 148//154 
f 152//156 162//174 158//172 148//154 
f 162//174 168//183 164//178 158//172 
f 148//154 158//172 154//159 146//149 
f 158//172 164//178 156//163 154//159 
f 156//163 144//147 141//145 154//159 
f 144//147 132//133 130//130 141//145 
f 154//159 141//145 134//136 146//149 
f 141//145 130//130 128//124 134//136 
f 188//194 174//161 177//175 196//204 
f 174//161 170//141 172//151 177//175 
f 196//204 177//175 182//185 198//200 
f 177//175 172//151 176//167 182//185 
f 176//167 180//182 190//193 182//185 
f 180//182 186//188 194//197 190//193 
f 182//185 190//193 200//207 198//200 
f 190//193 194//197 204//211 200//207 
f 204//211 212//224 206//215 200//207 
f 212//224 216//227 208//218 206//215 
f 200//207 206//215 196//204 198//200 
f 206//215 208//218 188//194 196//204 
f 232//232 215//228 207//217 225//219 
f 225//219 207//217 187//195 221//198 
f 221//198 187//195 173//162 218//166 
f 218//166 173//162 169//140 217//144 
f 217//144 170//141 174//161 219//165 
f 219//165 174//161 188//194 222//199 
f 222//199 188//194 208//218 226//220 
f 226//220 208//218 216//227 233//231 
f 233//231 231//235 236//239 238//237 
f 238//237 236//239 239//241 240//240 
f 240//240 239//241 235//238 237//236 
f 237//236 235//238 230//234 232//232 
f 185//189 167//184 163//177 179//181 
f 179//181 163//177 155//164 175//168 
f 175//168 155//164 143//148 171//152 
f 171//152 143//148 131//132 169//140 
f 215//228 213//229 209//221 211//223 
f 211//223 209//221 201//212 203//210 
f 203//210 201//212 191//202 193//196 
f 193//196 191//202 183//190 185//189 
f 123//127 111//116 113//119 125//122 
f 125//122 113//119 115//118 127//125 
f 127//125 115//118 117//112 129//131 
f 129//131 117//112 119//109 131//132 
f 167//184 165//179 159//169 161//173 
f 161//173 159//169 149//157 151//155 
f 151//155 149//157 137//142 139//138 
f 139//138 137//142 121//129 123//127 
f 75//59 57//54 61//60 77//64 
f 77//64 61//60 65//75 85//79 
f 85//79 65//75 69//91 97//95 
f 97//95 69//91 71//101 119//109 
f 111//116 109//113 101//99 103//103 
f 103//103 101//99 89//84 91//86 
f 91//86 89//84 79//72 81//68 
f 81//68 79//72 73//62 75//59 
f 27//15 10//10 15//22 33//24 
f 33//24 15//22 19//43 53//48 
f 53//48 19//43 22//77 67//81 
f 67//81 22//77 24//98 71//101 
f 57//54 55//51 47//39 49//45 
f 49//45 47//39 37//29 39//31 
f 39//31 37//29 29//20 31//18 
f 31//18 29//20 25//12 27//15 
f 11//11 28//14 34//25 16//23 
f 16//23 34//25 54//47 20//44 
f 20//44 54//47 68//80 23//76 
f 23//76 68//80 72//102 24//98 
f 10//10 8//7 3//3 5//5 
f 5//5 3//3 1//1 2//2 
f 2//2 1//1 4//4 6//6 
f 6//6 4//4 9//8 11//11 
f 58//53 76//58 78//65 62//61 
f 62//61 78//65 86//78 66//74 
f 66//74 86//78 98//94 70//90 
f 70//90 98//94 120//110 72//102 
f 28//14 26//13 30//21 32//19 
f 32//19 30//21 38//30 40//32 
f 40//32 38//30 48//40 50//46 
f 50//46 48//40 56//52 58//53 
f 112//115 124//126 126//123 114//120 
f 114//120 126//123 128//124 116//117 
f 116//117 128//124 130//130 118//111 
f 118//111 130//130 132//133 120//110 
f 76//58 74//63 80//73 82//69 
f 82//69 80//73 90//85 92//87 
f 92//87 90//85 102//100 104//104 
f 104//104 102//100 110//114 112//115 
f 168//183 186//188 180//182 164//178 
f 164//178 180//182 176//167 156//163 
f 156//163 176//167 172//151 144//147 
f 144//147 172//151 170//141 132//133 
f 124//126 122//128 138//143 140//139 
f 140//139 138//143 150//158 152//156 
f 152//156 150//158 160//170 162//174 
f 162//174 160//170 166//180 168//183 
f 186//188 184//191 192//203 194//197 
f 194//197 192//203 202//213 204//211 
f 204//211 202//213 210//222 212//224 
f 212//224 210//222 214//230 216//227 
f 232//232 230//234 213//229 215//228 
f 185//189 183//190 165//179 167//184 
f 123//127 121//129 109//113 111//116 
f 75//59 73//62 55//51 57//54 
f 27//15 25//12 8//7 10//10 
f 11//11 9//8 26//13 28//14 
f 58//53 56//52 74//63 76//58 
f 112//115 110//114 122//128 124//126 
f 168//183 166//180 184//191 186//188 
f 216//227 214//230 231//235 233//231 
f 217//144 169//140 131//132 119//109 71//101 24//98 72//102 120//110 132//133 170//141 
f 183//121 191//121 201//121 209//121 213//121 230//121 235//121 239//121 236//121 231//121 214//121 210//121 202//121 192//121 184//121 166//121 160//121 150//121 138//121 122//121 110//121 102//121 90//121 80//121 74//121 56//121 48//121 38//121 30//121 26//121 9//121 4//121 1//121 3//121 8//121 25//121 29//121 37//121 47//121 55//121 73//121 79//121 89//121 101//121 109//121 121//121 137//121 149//121 159//121 165//121 
