#Wavefront OBJ file created by Hexagon 2 
mtllib eleven.mtl
g Shape21
usemtl def_surf_mat
# 22 
v -1.83818 1.38147 13.6987 
v -1.83818 8.02446 13.6987 
v -1.83818 1.38147 10.6928 
v -1.83818 8.02446 10.6928 
v -0.213062 1.38147 16.2275 
v -0.213062 8.02446 16.2275 
v -0.213061 1.38147 8.16407 
v -0.213061 8.02446 8.16407 
v 2.52121 1.38147 17.4762 
v 2.52121 8.02446 17.4762 
v 2.52122 1.38147 6.91537 
v 2.52122 8.02446 6.91537 
v 5.49653 1.38147 17.0484 
v 5.49653 8.02446 17.0484 
v 5.49653 1.38147 7.34315 
v 5.49653 8.02446 7.34315 
v 7.76825 1.38147 15.0799 
v 7.76825 8.02446 15.0799 
v 7.76825 1.38147 9.31161 
v 7.76825 8.02446 9.31161 
v 8.61512 1.38147 12.1958 
v 8.61512 8.02446 12.1958 
# 13 
vn -0.959493 5.96791e-009 0.281732 
vn -0.959493 5.55396e-009 -0.281733 
vn -0.654861 8.01571e-009 0.755749 
vn -0.654861 1.2028e-008 -0.75575 
vn -0.142315 -9.70079e-009 0.989821 
vn -0.142315 -3.50895e-009 -0.989821 
vn 0 -1 0 
vn 5.35709e-008 1 0 
vn 0.415415 -1.98877e-008 0.909632 
vn 0.415415 -2.00647e-008 -0.909632 
vn 0.841254 -7.86149e-009 0.540641 
vn 0.841254 -8.84311e-009 -0.540641 
vn 1 1.51622e-009 7.76512e-008 
usemtl def_surf_mat
f 22//13 21//13 19//12 20//12 
f 20//12 19//12 15//10 16//10 
f 16//10 15//10 11//6 12//6 
f 12//6 11//6 7//4 8//4 
f 8//4 7//4 3//2 4//2 
f 4//2 3//2 1//1 2//1 
f 2//1 1//1 5//3 6//3 
f 6//3 5//3 9//5 10//5 
f 10//5 9//5 13//9 14//9 
f 14//9 13//9 17//11 18//11 
f 18//11 17//11 21//13 22//13 
f 22//8 20//8 16//8 12//8 8//8 4//8 2//8 6//8 10//8 14//8 18//8 
f 19//7 21//7 17//7 13//7 9//7 5//7 1//7 3//7 7//7 11//7 15//7 
