#Wavefront OBJ file created by Hexagon 2 
mtllib hex.mtl
g Shape21
usemtl def_surf_mat
# 12 
v -6.25623 2.74334 12.1958 
v -6.25623 7.78104 12.1958 
v -3.43038 2.74334 17.0903 
v -3.43038 7.78104 17.0903 
v -3.43038 2.74334 7.30125 
v -3.43038 7.78104 7.30125 
v 2.22132 2.74334 17.0903 
v 2.22132 7.78104 17.0903 
v 2.22132 2.74334 7.30125 
v 2.22132 7.78104 7.30125 
v 5.04716 2.74334 12.1958 
v 5.04716 7.78104 12.1958 
# 8 
vn -0.866025 -3.94506e-010 0.5 
vn -0.866025 -1.95442e-010 -0.5 
vn 0 1.84846e-008 1 
vn 0 -1 0 
vn -1.19084e-008 1 0 
vn -8.43706e-008 -2.7185e-008 -1 
vn 0.866026 -7.39208e-009 0.5 
vn 0.866025 -5.62541e-009 -0.5 
usemtl def_surf_mat
f 12//8 11//8 9//8 10//8 
f 10//6 9//6 5//6 6//6 
f 6//2 5//2 1//2 2//2 
f 2//1 1//1 3//1 4//1 
f 4//3 3//3 7//3 8//3 
f 8//7 7//7 11//7 12//7 
f 12//5 10//5 6//5 2//5 4//5 8//5 
f 9//4 11//4 7//4 3//4 1//4 5//4 
