#Wavefront OBJ file created by Hexagon 2 
mtllib hex01.mtl
g Shape7
usemtl def_surf_mat
# 144 
v -7.62862 1.93209 12.1958 
v -7.62862 9.51435 12.1958 
v -7.62025 1.93209 12.1316 
v -7.62025 1.93209 12.2599 
v -7.62025 9.51435 12.1316 
v -7.62025 9.51435 12.2599 
v -7.6201 9.57906 12.1958 
v -7.60742 9.59669 12.1377 
v -7.60655 9.5981 12.2553 
v -7.59513 1.93209 12.0708 
v -7.59513 1.93209 12.3208 
v -7.59513 9.51435 12.0708 
v -7.59513 9.51435 12.3208 
v -7.59513 9.63935 12.1958 
v -7.57812 9.61167 12.0806 
v -7.57812 9.61167 12.3109 
v -7.56903 9.66982 12.1502 
v -7.56903 9.66982 12.2413 
v -7.53172 9.69113 12.1074 
v -7.53172 9.69113 12.2842 
v -7.52362 9.71802 12.1941 
v -7.4629 9.74471 12.1471 
v -7.4629 9.74471 12.2444 
v -7.37862 9.76435 12.1958 
v -5.19143 1.93209 7.90744 
v -5.19143 1.93209 16.4841 
v -5.19143 9.51435 7.90744 
v -5.19143 9.51435 16.4841 
v -5.17442 9.61167 7.91726 
v -5.17442 9.61167 16.4743 
v -5.15132 1.93209 7.85528 
v -5.15132 1.93209 16.5363 
v -5.15132 9.51435 7.85528 
v -5.15132 9.51435 16.5363 
v -5.14045 9.5981 7.86481 
v -5.13964 9.59669 16.5282 
v -5.12802 9.69113 7.94405 
v -5.12802 9.69113 16.4475 
v -5.10957 9.66982 7.89031 
v -5.10956 9.66982 16.5012 
v -5.09993 1.93209 7.81593 
v -5.09993 1.93209 16.5756 
v -5.09993 9.51435 7.81593 
v -5.09993 9.51435 16.5756 
v -5.09567 9.57906 7.82331 
v -5.09567 9.57906 16.5682 
v -5.08318 9.63935 7.84494 
v -5.08318 9.63935 16.5466 
v -5.0592 9.74471 7.98378 
v -5.0592 9.74471 16.4077 
v -5.04885 9.71802 16.4838 
v -5.046 9.71802 7.90604 
v -5.04016 1.93209 7.79109 
v -5.04015 1.93209 16.6004 
v -5.04016 9.51435 7.79109 
v -5.04015 9.51435 16.6004 
v -5.039 9.59669 7.80525 
v -5.03733 9.5981 16.5862 
v -5.0307 9.66982 7.84477 
v -5.03069 9.66982 16.5468 
v -4.97493 1.93209 7.78244 
v -4.97493 1.93209 16.6091 
v -4.97493 9.51435 7.78244 
v -4.97493 9.51435 16.6091 
v -4.97493 9.61167 7.80208 
v -4.97493 9.61167 16.5894 
v -4.97493 9.69113 7.85566 
v -4.97493 9.69113 16.5359 
v -4.97493 9.74471 7.93513 
v -4.97493 9.74471 16.4564 
v -4.97493 9.76435 8.03244 
v -4.97493 9.76435 16.3591 
v -0.167531 1.93209 7.78244 
v -0.16753 1.93209 16.6091 
v -0.167531 9.51435 7.78244 
v -0.16753 9.51435 16.6091 
v -0.167531 9.61167 7.80208 
v -0.16753 9.61167 16.5894 
v -0.167531 9.69113 7.85566 
v -0.16753 9.69113 16.5359 
v -0.167531 9.74471 7.93513 
v -0.16753 9.74471 16.4564 
v -0.167531 9.76435 8.03244 
v -0.16753 9.76435 16.3591 
v -0.111762 9.66982 7.84477 
v -0.111761 9.66982 16.5468 
v -0.105124 9.5981 7.80528 
v -0.103453 9.59669 16.5863 
v -0.102302 1.93209 7.79109 
v -0.102301 1.93209 16.6004 
v -0.102302 9.51435 7.79109 
v -0.102301 9.51435 16.6004 
v -0.096457 9.71802 16.4855 
v -0.0936054 9.71802 7.90769 
v -0.0832573 9.74471 7.98378 
v -0.0832564 9.74471 16.4077 
v -0.0592782 9.63935 7.84494 
v -0.0592773 9.63935 16.5466 
v -0.0467907 9.57906 7.82331 
v -0.0467898 9.57906 16.5682 
v -0.0425314 1.93209 7.81593 
v -0.0425305 1.93209 16.5756 
v -0.0425314 9.51435 7.81593 
v -0.0425305 9.51435 16.5756 
v -0.0328913 9.66982 7.89031 
v -0.0328904 9.66982 16.5012 
v -0.0144383 9.69113 7.94405 
v -0.0144373 9.69113 16.4475 
v -0.00281579 9.59669 7.86335 
v -0.00201034 9.5981 16.5267 
v 0.00886577 1.93209 7.85528 
v 0.00886672 1.93209 16.5363 
v 0.00886578 9.51435 7.85528 
v 0.00886672 9.51435 16.5363 
v 0.0319608 9.61167 7.91726 
v 0.0319618 9.61167 16.4743 
v 0.048975 1.93209 7.90744 
v 0.0489759 1.93209 16.4841 
v 0.048975 9.51435 7.90744 
v 0.0489759 9.51435 16.4841 
v 2.23617 9.76435 12.1958 
v 2.32044 9.74471 12.1471 
v 2.32044 9.74471 12.2444 
v 2.38117 9.71802 12.1974 
v 2.38926 9.69113 12.1074 
v 2.38926 9.69113 12.2842 
v 2.42658 9.66982 12.1502 
v 2.42658 9.66982 12.2413 
v 2.43566 9.61167 12.0806 
v 2.43566 9.61167 12.3109 
v 2.45267 1.93209 12.0708 
v 2.45267 1.93209 12.3208 
v 2.45267 9.51435 12.0708 
v 2.45267 9.51435 12.3208 
v 2.45267 9.63935 12.1958 
v 2.46409 9.5981 12.1362 
v 2.46496 9.59669 12.2539 
v 2.47765 9.57906 12.1958 
v 2.47779 1.93209 12.1316 
v 2.47779 1.93209 12.2599 
v 2.47779 9.51435 12.1316 
v 2.47779 9.51435 12.2599 
v 2.48617 1.93209 12.1958 
v 2.48617 9.51435 12.1958 
# 145 
vn -1 -1.13106e-008 1.95357e-007 
vn -0.997129 0.0757112 0.00072503 
vn -0.966206 5.29764e-009 -0.257771 
vn -0.966206 5.29753e-009 0.257769 
vn -0.960322 0.0841547 -0.265894 
vn -0.960042 0.084814 0.266694 
vn -0.954323 0.298777 0.000631025 
vn -0.908503 0.329694 -0.256756 
vn -0.907592 0.33111 0.258153 
vn -0.897094 9.51367e-009 -0.441841 
vn -0.897094 2.11163e-008 0.441839 
vn -0.890855 0.0962137 -0.443983 
vn -0.890821 0.0961583 0.444063 
vn -0.852892 0.522088 -0.000132194 
vn -0.831192 -6.19319e-009 -0.555986 
vn -0.831194 3.23072e-009 0.555982 
vn -0.829981 0.0961572 -0.549442 
vn -0.829928 0.0962154 0.549511 
vn -0.829378 0.373139 -0.415812 
vn -0.828693 0.37379 0.416592 
vn -0.775123 0.373791 -0.509376 
vn -0.774788 0.37314 0.510362 
vn -0.764506 0.622093 -0.168911 
vn -0.763931 0.62312 0.167726 
vn -0.710987 0.0848136 -0.698072 
vn -0.710434 0.084159 0.698714 
vn -0.706341 -3.36879e-008 -0.707872 
vn -0.706341 -2.99845e-009 0.707871 
vn -0.677362 0.331113 -0.656921 
vn -0.676607 0.329698 0.658409 
vn -0.652103 0.691052 -0.311783 
vn -0.651554 0.692052 0.31071 
vn -0.596061 0.691052 0.408851 
vn -0.59486 0.692051 -0.40891 
vn -0.560783 0.827961 -0.00175082 
vn -0.528535 0.62209 0.577628 
vn -0.52722 0.623119 -0.577721 
vn -0.500001 -5.89206e-008 -0.866025 
vn -0.499995 -1.15126e-009 0.866028 
vn -0.499195 0.0757126 -0.863175 
vn -0.497935 0.0757157 0.863903 
vn -0.477705 0.29878 -0.826153 
vn -0.476615 0.298784 0.826781 
vn -0.426561 0.522091 0.738557 
vn -0.426325 0.52209 -0.738694 
vn -0.390496 0.909191 0.144511 
vn -0.390368 0.908966 -0.146265 
vn -0.321853 0.908966 0.264937 
vn -0.320401 0.909191 -0.265924 
vn -0.28191 0.82796 0.484778 
vn -0.278877 0.827959 -0.48653 
vn -0.259866 -4.58526e-008 -0.965645 
vn -0.259859 -6.76299e-009 0.965647 
vn -0.249889 0.0841561 -0.96461 
vn -0.249053 0.0848145 0.964769 
vn -0.236712 0.623121 0.745445 
vn -0.235968 0.62209 -0.746541 
vn -0.23189 0.329695 -0.915166 
vn -0.230228 0.331113 0.915073 
vn -0.163169 0.986598 3.20638e-007 
vn -0.0815828 0.986599 -0.141306 
vn -0.0815838 0.986598 0.141309 
vn -0.0700968 0.909191 0.410436 
vn -0.0685135 0.908966 -0.411201 
vn -0.0659018 -1.56551e-008 -0.997826 
vn -0.0658978 -1.55286e-009 0.997826 
vn -0.0609256 0.0962142 -0.993494 
vn -0.0608395 0.0961564 0.993505 
vn -0.0566976 0.692052 0.719618 
vn -0.0560408 0.691051 -0.72063 
vn -0.0545853 0.37314 -0.926168 
vn -0.0535726 0.373789 0.925965 
vn 0 -1 4.81501e-011 
vn 0.0535722 0.37379 -0.925965 
vn 0.054588 0.373139 0.926168 
vn 0.0560399 0.691054 0.720628 
vn 0.056697 0.692051 -0.719618 
vn 0.0608433 0.0961578 -0.993505 
vn 0.0609282 0.0962141 0.993494 
vn 0.0659047 -3.78379e-012 -0.997826 
vn 0.0658998 7.87493e-011 0.997826 
vn 0.0685136 0.908966 0.4112 
vn 0.0700976 0.909192 -0.410435 
vn 0.0815846 0.986598 -0.141307 
vn 0.0815839 0.986598 0.141309 
vn 0.16317 0.986598 7.41432e-007 
vn 0.23023 0.331111 -0.915074 
vn 0.231889 0.329694 0.915166 
vn 0.235965 0.622091 0.746541 
vn 0.236713 0.62312 -0.745445 
vn 0.249057 0.0848133 -0.964768 
vn 0.249888 0.0841582 0.96461 
vn 0.259865 -1.71982e-010 -0.965645 
vn 0.259864 3.99127e-010 0.965645 
vn 0.278873 0.82796 0.48653 
vn 0.28191 0.827961 -0.484775 
vn 0.320399 0.909191 0.265926 
vn 0.321853 0.908966 -0.264935 
vn 0.390369 0.908966 0.146264 
vn 0.390498 0.909191 -0.144511 
vn 0.426323 0.522088 0.738697 
vn 0.426566 0.52209 -0.738555 
vn 0.476619 0.298778 -0.826781 
vn 0.477697 0.298781 0.826157 
vn 0.497936 0.0757113 -0.863902 
vn 0.499187 0.075716 0.86318 
vn 0.499998 -4.6537e-010 -0.866027 
vn 0.5 4.28476e-010 0.866026 
vn 0.527216 0.62312 0.577724 
vn 0.52854 0.622092 -0.577622 
vn 0.560784 0.82796 0.00174987 
vn 0.594859 0.692051 0.408911 
vn 0.596063 0.691053 -0.408846 
vn 0.651555 0.692052 -0.31071 
vn 0.652105 0.691052 0.311777 
vn 0.676613 0.329694 -0.658405 
vn 0.677358 0.331116 0.656923 
vn 0.70634 -5.4564e-010 -0.707872 
vn 0.706342 -4.07905e-010 0.70787 
vn 0.710434 0.0841555 -0.698714 
vn 0.710984 0.084817 0.698074 
vn 0.76393 0.623121 -0.167725 
vn 0.764507 0.622093 0.168909 
vn 0.774793 0.373139 -0.510356 
vn 0.775124 0.373791 0.509376 
vn 0.828694 0.373791 -0.41659 
vn 0.82938 0.373139 0.415808 
vn 0.829928 0.0962145 -0.549511 
vn 0.829982 0.0961584 0.54944 
vn 0.831192 -2.45158e-010 -0.555986 
vn 0.831194 -1.47566e-009 0.555982 
vn 0.85289 0.522091 0.000136634 
vn 0.890821 0.0961576 -0.444062 
vn 0.890855 0.0962138 0.443982 
vn 0.897094 -1.48272e-009 -0.441839 
vn 0.897093 -2.44674e-009 0.441841 
vn 0.907592 0.331113 -0.258151 
vn 0.908504 0.329694 0.256754 
vn 0.954322 0.298779 -0.000627386 
vn 0.960043 0.0848141 -0.266691 
vn 0.960322 0.0841547 0.265893 
vn 0.966207 5.50436e-009 -0.257769 
vn 0.966206 5.50443e-009 0.257771 
vn 0.997129 0.0757117 -0.000723879 
vn 1 1.39943e-008 8.03968e-007 
usemtl def_surf_mat
f 125//114 122//100 124//111 127//122 
f 122//100 121//86 123//99 124//111 
f 127//122 124//111 128//123 135//132 
f 124//111 123//99 126//115 128//123 
f 126//115 130//127 137//138 128//123 
f 130//127 134//134 142//141 137//138 
f 128//123 137//138 138//139 135//132 
f 137//138 142//141 144//144 138//139 
f 144//144 141//140 136//137 138//139 
f 141//140 133//133 129//126 136//137 
f 138//139 136//137 127//122 135//132 
f 136//137 129//126 125//114 127//122 
f 107//113 115//124 109//116 105//110 
f 115//124 119//128 113//120 109//116 
f 105//110 109//116 99//103 97//102 
f 109//116 113//120 103//105 99//103 
f 103//105 91//91 87//87 99//103 
f 91//91 75//78 77//74 87//87 
f 99//103 87//87 85//90 97//102 
f 87//87 77//74 79//77 85//90 
f 79//77 81//83 94//96 85//90 
f 81//83 83//84 95//98 94//96 
f 85//90 94//96 105//110 97//102 
f 94//96 95//98 107//113 105//110 
f 67//70 65//71 57//58 59//57 
f 65//71 63//67 55//54 57//58 
f 59//57 57//58 45//42 47//45 
f 57//58 55//54 43//40 45//42 
f 43//40 33//25 35//29 45//42 
f 33//25 27//17 29//21 35//29 
f 45//42 35//29 39//37 47//45 
f 35//29 29//21 37//34 39//37 
f 37//34 49//49 52//51 39//37 
f 49//49 71//61 69//64 52//51 
f 39//37 52//51 59//57 47//45 
f 52//51 69//64 67//70 59//57 
f 19//31 15//19 8//8 17//23 
f 15//19 12//12 5//5 8//8 
f 17//23 8//8 7//7 14//14 
f 8//8 5//5 2//2 7//7 
f 2//2 6//6 9//9 7//7 
f 6//6 13//13 16//20 9//9 
f 7//7 9//9 18//24 14//14 
f 9//9 16//20 20//32 18//24 
f 20//32 23//46 21//35 18//24 
f 23//46 24//60 22//47 21//35 
f 18//24 21//35 17//23 14//14 
f 21//35 22//47 19//31 17//23 
f 38//33 30//22 36//30 40//36 
f 30//22 28//18 34//26 36//30 
f 40//36 36//30 46//43 48//44 
f 36//30 34//26 44//41 46//43 
f 44//41 56//55 58//59 46//43 
f 56//55 64//68 66//72 58//59 
f 46//43 58//59 60//56 48//44 
f 58//59 66//72 68//69 60//56 
f 68//69 70//63 51//50 60//56 
f 70//63 72//62 50//48 51//50 
f 60//56 51//50 40//36 48//44 
f 51//50 50//48 38//33 40//36 
f 108//112 96//97 93//95 106//109 
f 96//97 84//85 82//82 93//95 
f 106//109 93//95 86//89 98//101 
f 93//95 82//82 80//76 86//89 
f 80//76 78//75 88//88 86//89 
f 78//75 76//79 92//92 88//88 
f 86//89 88//88 100//104 98//101 
f 88//88 92//92 104//106 100//104 
f 104//106 114//121 110//117 100//104 
f 114//121 120//129 116//125 110//117 
f 100//104 110//117 106//109 98//101 
f 110//117 116//125 108//112 106//109 
f 133//133 119//128 115//124 129//126 
f 129//126 115//124 107//113 125//114 
f 125//114 107//113 95//98 122//100 
f 122//100 95//98 83//84 121//86 
f 121//86 84//85 96//97 123//99 
f 123//99 96//97 108//112 126//115 
f 126//115 108//112 116//125 130//127 
f 130//127 116//125 120//129 134//134 
f 134//134 132//136 140//143 142//141 
f 142//141 140//143 143//145 144//144 
f 144//144 143//145 139//142 141//140 
f 141//140 139//142 131//135 133//133 
f 75//78 63//67 65//71 77//74 
f 77//74 65//71 67//70 79//77 
f 79//77 67//70 69//64 81//83 
f 81//83 69//64 71//61 83//84 
f 119//128 117//130 111//118 113//120 
f 113//120 111//118 101//107 103//105 
f 103//105 101//107 89//93 91//91 
f 91//91 89//93 73//80 75//78 
f 27//17 12//12 15//19 29//21 
f 29//21 15//19 19//31 37//34 
f 37//34 19//31 22//47 49//49 
f 49//49 22//47 24//60 71//61 
f 63//67 61//65 53//52 55//54 
f 55//54 53//52 41//38 43//40 
f 43//40 41//38 31//27 33//25 
f 33//25 31//27 25//15 27//17 
f 13//13 28//18 30//22 16//20 
f 16//20 30//22 38//33 20//32 
f 20//32 38//33 50//48 23//46 
f 23//46 50//48 72//62 24//60 
f 12//12 10//10 3//3 5//5 
f 5//5 3//3 1//1 2//2 
f 2//2 1//1 4//4 6//6 
f 6//6 4//4 11//11 13//13 
f 64//68 76//79 78//75 66//72 
f 66//72 78//75 80//76 68//69 
f 68//69 80//76 82//82 70//63 
f 70//63 82//82 84//85 72//62 
f 28//18 26//16 32//28 34//26 
f 34//26 32//28 42//39 44//41 
f 44//41 42//39 54//53 56//55 
f 56//55 54//53 62//66 64//68 
f 76//79 74//81 90//94 92//92 
f 92//92 90//94 102//108 104//106 
f 104//106 102//108 112//119 114//121 
f 114//121 112//119 118//131 120//129 
f 133//133 131//135 117//130 119//128 
f 75//78 73//80 61//65 63//67 
f 27//17 25//15 10//10 12//12 
f 13//13 11//11 26//16 28//18 
f 64//68 62//66 74//81 76//79 
f 120//129 118//131 132//136 134//134 
f 121//86 83//84 71//61 24//60 72//62 84//85 
f 73//73 89//73 101//73 111//73 117//73 131//73 139//73 143//73 140//73 132//73 118//73 112//73 102//73 90//73 74//73 62//73 54//73 42//73 32//73 26//73 11//73 4//73 1//73 3//73 10//73 25//73 31//73 41//73 53//73 61//73 
