#Wavefront OBJ file created by Hexagon 2 
mtllib nine.mtl
g Shape21
usemtl def_surf_mat
# 18 
v -4.2457 3.31905 13.7414 
v -4.2457 9.12986 13.7414 
v -4.2457 3.31905 10.6501 
v -4.2457 9.12986 10.6501 
v -2.25862 3.31905 16.1095 
v -2.25862 9.12986 16.1095 
v -2.25862 3.31905 8.28199 
v -2.25862 9.12986 8.28199 
v 0.785751 3.31905 16.6463 
v 0.785751 9.12986 16.6463 
v 0.785752 3.31905 7.74518 
v 0.785752 9.12986 7.74518 
v 3.46293 3.31905 15.1007 
v 3.46293 9.12986 15.1007 
v 3.46293 3.31905 9.29085 
v 3.46293 9.12986 9.29085 
v 4.52023 3.31905 12.1958 
v 4.52023 9.12986 12.1958 
# 11 
vn -0.939693 1.62367e-009 0.34202 
vn -0.939693 1.53028e-009 -0.34202 
vn -0.5 -1.0498e-008 0.866025 
vn -0.5 1.28375e-009 -0.866025 
vn -1.11022e-016 -1 -3.65079e-016 
vn -2.57032e-008 1 3.65079e-016 
vn 0.173648 -4.7157e-009 0.984808 
vn 0.173648 2.72008e-009 -0.984808 
vn 0.766044 8.08131e-009 0.642788 
vn 0.766044 1.85811e-009 -0.642788 
vn 1 -4.33129e-010 4.75725e-008 
usemtl def_surf_mat
f 18//11 17//11 15//10 16//10 
f 16//10 15//10 11//8 12//8 
f 12//8 11//8 7//4 8//4 
f 8//4 7//4 3//2 4//2 
f 4//2 3//2 1//1 2//1 
f 2//1 1//1 5//3 6//3 
f 6//3 5//3 9//7 10//7 
f 10//7 9//7 13//9 14//9 
f 14//9 13//9 17//11 18//11 
f 18//6 16//6 12//6 8//6 4//6 2//6 6//6 10//6 14//6 
f 15//5 17//5 13//5 9//5 5//5 1//5 3//5 7//5 11//5 
