#Wavefront OBJ file created by Hexagon 2 
mtllib octa01.mtl
g Shape21
usemtl def_surf_mat
# 192 
v -3.44506 0.667701 12.1958 
v -3.44506 9.67558 12.1958 
v -3.4403 0.667701 12.1472 
v -3.4403 0.667701 12.2443 
v -3.4403 9.67558 12.1472 
v -3.4403 9.67558 12.2443 
v -3.43741 9.73695 12.1958 
v -3.42788 9.7554 12.1519 
v -3.42729 9.75654 12.2407 
v -3.42603 0.667701 12.1001 
v -3.42603 0.667701 12.2914 
v -3.42603 9.67558 12.1001 
v -3.42603 9.67558 12.2914 
v -3.41493 9.79457 12.1958 
v -3.40788 9.77289 12.1076 
v -3.40788 9.77289 12.2839 
v -3.39106 9.82686 12.1612 
v -3.39106 9.82686 12.2304 
v -3.35838 9.85236 12.1281 
v -3.35838 9.85236 12.2634 
v -3.34496 9.87567 12.1944 
v -3.28496 9.90593 12.1585 
v -3.28496 9.90593 12.233 
v -3.19506 9.92558 12.1958 
v -1.81611 0.667701 8.2134 
v -1.81611 0.667701 16.1781 
v -1.81611 9.67558 8.2134 
v -1.81611 9.67558 16.1781 
v -1.79796 9.77289 8.22092 
v -1.79796 9.77289 16.1706 
v -1.79288 0.667701 8.16999 
v -1.79288 0.667701 16.2215 
v -1.79288 9.67558 8.16999 
v -1.79288 9.67558 16.2215 
v -1.78115 9.75654 8.17666 
v -1.78079 9.7554 16.2161 
v -1.76192 0.667701 8.1323 
v -1.76192 0.667701 16.2592 
v -1.76192 9.67558 8.1323 
v -1.76192 9.67558 16.2592 
v -1.75651 9.73695 8.1377 
v -1.75651 9.73695 16.2538 
v -1.74846 9.85236 8.24142 
v -1.74846 9.85236 16.1501 
v -1.7482 9.82686 8.19495 
v -1.7482 9.82686 16.1966 
v -1.74061 9.79457 8.1536 
v -1.74061 9.79457 16.2379 
v -1.72423 0.667701 8.10133 
v -1.72423 0.667701 16.2902 
v -1.72423 9.67558 8.10133 
v -1.72423 9.67558 16.2902 
v -1.71874 9.7554 8.11342 
v -1.71755 9.75654 16.2785 
v -1.69927 9.82686 8.14601 
v -1.69926 9.82686 16.2455 
v -1.69211 9.87567 16.1875 
v -1.69016 9.87567 8.2021 
v -1.68081 0.667701 8.0781 
v -1.68081 0.667701 16.3134 
v -1.68081 9.67558 8.0781 
v -1.68081 9.67558 16.3134 
v -1.67504 9.90593 8.27183 
v -1.67504 9.90593 16.1197 
v -1.67329 9.77289 8.09625 
v -1.67329 9.77289 16.2953 
v -1.65279 9.85236 8.14575 
v -1.65279 9.85236 16.2458 
v -1.62238 9.90593 8.21917 
v -1.62238 9.90593 16.1724 
v -1.58514 9.92558 8.30907 
v -1.58514 9.92558 16.0825 
v 2.20588 0.667701 6.46818 
v 2.20588 0.667701 17.9233 
v 2.20588 9.67558 6.46818 
v 2.20588 9.67558 17.9233 
v 2.2134 9.77289 6.48633 
v 2.2134 9.77289 17.9052 
v 2.2339 9.85236 6.53583 
v 2.2339 9.85236 17.8557 
v 2.25301 0.667701 6.45391 
v 2.25301 0.667701 17.9376 
v 2.25301 9.67558 6.45391 
v 2.25301 9.67558 17.9376 
v 2.25657 9.75654 6.46692 
v 2.25768 9.7554 17.9252 
v 2.26431 9.90593 6.60925 
v 2.26431 9.90593 17.7823 
v 2.26695 9.82686 6.50315 
v 2.26695 9.82686 17.8884 
v 2.30017 9.87567 17.8423 
v 2.30155 0.667701 6.44915 
v 2.30155 0.667701 17.9424 
v 2.30155 9.67558 6.44915 
v 2.30155 9.67558 17.9424 
v 2.30155 9.73695 6.4568 
v 2.30155 9.73695 17.9347 
v 2.30155 9.79457 6.47929 
v 2.30155 9.79457 17.9122 
v 2.30155 9.92558 6.69915 
v 2.30155 9.92558 17.6924 
v 2.30293 9.87567 6.54925 
v 2.33615 9.82686 6.50315 
v 2.33615 9.82686 17.8884 
v 2.33879 9.90593 6.60925 
v 2.33879 9.90593 17.7823 
v 2.34542 9.7554 6.46634 
v 2.34653 9.75654 17.9246 
v 2.3501 0.667701 6.45391 
v 2.3501 0.667701 17.9376 
v 2.3501 9.67558 6.45391 
v 2.3501 9.67558 17.9376 
v 2.3692 9.85236 6.53583 
v 2.3692 9.85236 17.8557 
v 2.3897 9.77289 6.48633 
v 2.3897 9.77289 17.9052 
v 2.39722 0.667701 6.46818 
v 2.39722 0.667701 17.9233 
v 2.39722 9.67558 6.46818 
v 2.39722 9.67558 17.9233 
v 6.18824 9.92558 8.30907 
v 6.18824 9.92558 16.0825 
v 6.22548 9.90593 8.21917 
v 6.22548 9.90593 16.1724 
v 6.25589 9.85236 8.14575 
v 6.25589 9.85236 16.2458 
v 6.27639 9.77289 8.09625 
v 6.2764 9.77289 16.2953 
v 6.27815 9.90593 8.27183 
v 6.27815 9.90593 16.1197 
v 6.28391 0.667701 8.0781 
v 6.28391 0.667701 16.3134 
v 6.28391 9.67558 8.0781 
v 6.28391 9.67558 16.3134 
v 6.29326 9.87567 16.1894 
v 6.29521 9.87567 8.20406 
v 6.30237 9.82686 8.14601 
v 6.30237 9.82686 16.2455 
v 6.32065 9.75654 8.11306 
v 6.32185 9.7554 16.2781 
v 6.32733 0.667701 8.10133 
v 6.32733 0.667701 16.2902 
v 6.32733 9.67558 8.10133 
v 6.32733 9.67558 16.2902 
v 6.34371 9.79457 8.1536 
v 6.34371 9.79457 16.2379 
v 6.3513 9.82686 8.19495 
v 6.3513 9.82686 16.1966 
v 6.35156 9.85236 8.24142 
v 6.35156 9.85236 16.1501 
v 6.35961 9.73695 8.1377 
v 6.35961 9.73695 16.2538 
v 6.36502 0.667701 8.1323 
v 6.36502 0.667701 16.2592 
v 6.36502 9.67558 8.1323 
v 6.36502 9.67558 16.2592 
v 6.38389 9.7554 8.17547 
v 6.38426 9.75654 16.2149 
v 6.39598 0.667701 8.16999 
v 6.39598 0.667701 16.2215 
v 6.39598 9.67558 8.16999 
v 6.39598 9.67558 16.2215 
v 6.40106 9.77289 8.22092 
v 6.40106 9.77289 16.1706 
v 6.41921 0.667701 8.2134 
v 6.41921 0.667701 16.1781 
v 6.41921 9.67558 8.2134 
v 6.41921 9.67558 16.1781 
v 7.79816 9.92558 12.1958 
v 7.88807 9.90593 12.1585 
v 7.88807 9.90593 12.233 
v 7.94806 9.87567 12.1971 
v 7.96148 9.85236 12.1281 
v 7.96148 9.85236 12.2634 
v 7.99416 9.82686 12.1612 
v 7.99416 9.82686 12.2304 
v 8.01098 9.77289 12.1076 
v 8.01098 9.77289 12.2839 
v 8.01803 9.79457 12.1958 
v 8.02913 0.667701 12.1001 
v 8.02913 0.667701 12.2914 
v 8.02913 9.67558 12.1001 
v 8.02913 9.67558 12.2914 
v 8.03039 9.75654 12.1508 
v 8.03098 9.7554 12.2396 
v 8.04051 9.73695 12.1958 
v 8.0434 0.667701 12.1472 
v 8.0434 0.667701 12.2443 
v 8.0434 9.67558 12.1472 
v 8.0434 9.67558 12.2443 
v 8.04816 0.667701 12.1958 
v 8.04816 9.67558 12.1958 
# 193 
vn -1 1.42982e-008 -3.74314e-009 
vn -0.997333 0.0729781 0.000623082 
vn -0.980876 3.94892e-009 -0.194635 
vn -0.980876 1.03124e-008 0.194636 
vn -0.974671 0.082227 -0.207979 
vn -0.974494 0.0827004 0.208621 
vn -0.95757 0.2882 0.0003162 
vn -0.941619 -5.97422e-009 -0.33668 
vn -0.941619 8.82387e-009 0.336681 
vn -0.934674 0.0956014 0.342411 
vn -0.934681 0.095612 -0.342388 
vn -0.92367 0.322214 -0.207395 
vn -0.923033 0.323354 0.208451 
vn -0.903895 6.97418e-010 -0.427755 
vn -0.903894 5.43078e-009 0.427756 
vn -0.903035 0.095603 -0.418793 
vn -0.903025 0.0956121 0.418812 
vn -0.870153 0.371083 -0.324238 
vn -0.869651 0.371611 0.32498 
vn -0.863067 0.50509 -0.00041367 
vn -0.84473 0.371611 -0.385144 
vn -0.844564 0.371081 0.386018 
vn -0.836589 0.0827017 -0.541553 
vn -0.836263 0.0822272 0.542129 
vn -0.831214 -1.72485e-009 -0.555953 
vn -0.831211 1.56149e-009 0.555957 
vn -0.800077 0.323355 -0.50529 
vn -0.799788 0.322213 0.506476 
vn -0.781987 0.608162 -0.136508 
vn -0.781535 0.609007 0.135327 
vn -0.707106 -5.65078e-009 -0.707108 
vn -0.707105 1.05878e-009 0.707108 
vn -0.705659 0.0729782 -0.704784 
vn -0.70478 0.072979 0.705662 
vn -0.684901 0.68678 -0.2434 
vn -0.684471 0.687514 0.242536 
vn -0.677324 0.288204 -0.676883 
vn -0.676873 0.288203 0.677335 
vn -0.656409 0.686778 0.312191 
vn -0.65549 0.687514 -0.312502 
vn -0.649475 0.608162 0.456423 
vn -0.648314 0.609008 -0.456944 
vn -0.610561 0.505094 0.609996 
vn -0.609985 0.505095 -0.610572 
vn -0.578763 0.815494 -0.00157021 
vn -0.555966 1.17271e-010 0.831205 
vn -0.555951 1.56801e-009 -0.831215 
vn -0.542125 0.082227 -0.836265 
vn -0.541566 0.0827024 0.83658 
vn -0.506478 0.322217 -0.799785 
vn -0.505293 0.323354 0.800076 
vn -0.456941 0.609005 0.64832 
vn -0.456424 0.608166 -0.64947 
vn -0.427767 8.51547e-010 0.903889 
vn -0.427755 2.10383e-009 -0.903895 
vn -0.418811 0.0956111 -0.903026 
vn -0.418809 0.0956016 0.903028 
vn -0.41036 0.815493 0.408136 
vn -0.410147 0.905045 0.11257 
vn -0.410054 0.904891 -0.114139 
vn -0.408135 0.815495 -0.410358 
vn -0.386019 0.371083 -0.844563 
vn -0.385162 0.371611 0.844722 
vn -0.370661 0.904891 0.209244 
vn -0.369613 0.905046 -0.210423 
vn -0.342412 0.0956019 -0.934673 
vn -0.342386 0.0956106 0.934682 
vn -0.336683 2.22258e-009 -0.941618 
vn -0.336677 6.47283e-010 0.94162 
vn -0.324977 0.371611 -0.869652 
vn -0.324237 0.371082 0.870154 
vn -0.31251 0.687513 0.655488 
vn -0.312191 0.686781 -0.656406 
vn -0.243402 0.686778 0.684902 
vn -0.242532 0.687515 -0.684472 
vn -0.210424 0.905046 0.369613 
vn -0.209244 0.904891 -0.370661 
vn -0.20862 0.0827016 -0.974494 
vn -0.208447 0.323353 -0.923035 
vn -0.207978 0.0822244 0.974671 
vn -0.207399 0.322213 0.923669 
vn -0.194637 2.61843e-009 -0.980875 
vn -0.194632 1.05611e-009 0.980876 
vn -0.171759 0.985139 1.06744e-006 
vn -0.136516 0.608162 0.781986 
vn -0.135324 0.609005 -0.781537 
vn -0.121452 0.985139 -0.121454 
vn -0.121452 0.985139 0.121449 
vn -0.114142 0.904891 0.410053 
vn -0.112568 0.905046 -0.410147 
vn -0.00157275 0.815493 0.578764 
vn -0.000624296 0.0729783 -0.997333 
vn -0.000423863 0.505096 0.863063 
vn -0.000318789 0.288199 -0.957571 
vn 0 -1 9.31855e-009 
vn -2.08867e-006 6.83619e-010 -1 
vn -1.72184e-006 5.29322e-010 1 
vn -4.65637e-007 0.985139 -0.171759 
vn 7.39762e-007 0.985139 0.171757 
vn 0.000312436 0.288197 0.957571 
vn 0.000409968 0.505088 -0.863068 
vn 0.000624031 0.0729695 0.997334 
vn 0.00156889 0.815497 -0.578759 
vn 0.112571 0.905045 0.410149 
vn 0.114137 0.904893 -0.410051 
vn 0.121453 0.985139 -0.121452 
vn 0.121453 0.985139 0.121452 
vn 0.135326 0.609011 0.781532 
vn 0.136505 0.608164 -0.781987 
vn 0.171759 0.985139 -4.68409e-007 
vn 0.194633 5.28485e-010 -0.980876 
vn 0.194628 1.9365e-009 0.980877 
vn 0.207394 0.322214 -0.92367 
vn 0.207979 0.082228 -0.974671 
vn 0.208453 0.323351 0.923034 
vn 0.208619 0.0826923 0.974495 
vn 0.209247 0.90489 0.370661 
vn 0.210421 0.905045 -0.369616 
vn 0.242538 0.687515 0.684469 
vn 0.243399 0.686782 -0.6849 
vn 0.312194 0.68678 0.656405 
vn 0.312499 0.687515 -0.65549 
vn 0.324241 0.371082 -0.870153 
vn 0.324981 0.371613 0.86965 
vn 0.336681 -2.77447e-009 -0.941619 
vn 0.336675 2.21583e-010 0.941621 
vn 0.342391 0.0956121 -0.93468 
vn 0.342408 0.0955986 0.934675 
vn 0.369616 0.905045 0.210422 
vn 0.370659 0.904891 -0.209245 
vn 0.385145 0.371611 -0.84473 
vn 0.386025 0.371084 0.84456 
vn 0.408138 0.815493 0.41036 
vn 0.410053 0.904892 0.114139 
vn 0.410147 0.905046 -0.112566 
vn 0.410357 0.815494 -0.408138 
vn 0.418794 0.0956003 -0.903035 
vn 0.418821 0.0956104 0.903021 
vn 0.427756 -7.99785e-009 -0.903894 
vn 0.427767 5.26267e-009 0.903889 
vn 0.456427 0.608164 0.64947 
vn 0.456944 0.609008 -0.648314 
vn 0.505292 0.323354 -0.800077 
vn 0.506486 0.322216 0.79978 
vn 0.541552 0.0826988 -0.83659 
vn 0.542135 0.0822262 0.836259 
vn 0.555952 9.28316e-010 -0.831214 
vn 0.555961 1.28478e-008 0.831208 
vn 0.578764 0.815494 0.00157236 
vn 0.609988 0.505093 0.61057 
vn 0.610572 0.505094 -0.609985 
vn 0.64832 0.609004 0.456941 
vn 0.649474 0.608162 -0.456424 
vn 0.655493 0.687512 0.312499 
vn 0.65641 0.686777 -0.31219 
vn 0.676883 0.288201 -0.677325 
vn 0.677332 0.288202 0.676876 
vn 0.684473 0.687514 -0.242531 
vn 0.684902 0.686778 0.243404 
vn 0.704782 0.072976 -0.705661 
vn 0.705662 0.0729771 0.704781 
vn 0.707105 6.81676e-009 -0.707109 
vn 0.707104 3.46199e-009 0.70711 
vn 0.781539 0.609003 -0.135319 
vn 0.78199 0.608158 0.136513 
vn 0.799788 0.322212 -0.506476 
vn 0.800084 0.323352 0.505282 
vn 0.831214 1.22498e-008 -0.555953 
vn 0.831215 -1.47119e-008 0.555951 
vn 0.836265 0.0822265 -0.542125 
vn 0.836592 0.0827014 0.541549 
vn 0.844566 0.371079 -0.386016 
vn 0.844732 0.37161 0.385142 
vn 0.86307 0.505084 0.000417735 
vn 0.869653 0.371609 -0.324978 
vn 0.870153 0.371081 0.324242 
vn 0.903026 0.095612 -0.41881 
vn 0.903036 0.0956035 0.418791 
vn 0.903895 2.5127e-009 -0.427754 
vn 0.903896 -2.24892e-009 0.427752 
vn 0.923035 0.323351 -0.208448 
vn 0.923668 0.322212 0.207403 
vn 0.934673 0.0956011 -0.342413 
vn 0.934681 0.0956132 0.342389 
vn 0.941618 -1.65577e-008 -0.336682 
vn 0.941619 2.04587e-009 0.336681 
vn 0.957571 0.288197 -0.000311312 
vn 0.974493 0.0826997 -0.208625 
vn 0.974669 0.0822294 0.207985 
vn 0.980875 6.01665e-009 -0.19464 
vn 0.980875 6.01671e-009 0.194639 
vn 0.997333 0.0729785 -0.000621278 
vn 1 2.77944e-008 3.74314e-009 
usemtl def_surf_mat
f 173//158 170//135 172//149 175//164 
f 170//135 169//110 171//134 172//149 
f 175//164 172//149 176//165 179//174 
f 172//149 171//134 174//159 176//165 
f 174//159 178//176 185//182 176//165 
f 178//176 183//184 190//189 185//182 
f 176//165 185//182 186//187 179//174 
f 185//182 190//189 192//192 186//187 
f 192//192 189//188 184//181 186//187 
f 189//188 182//183 177//175 184//181 
f 186//187 184//181 175//164 179//174 
f 184//181 177//175 173//158 175//164 
f 149//155 163//172 157//166 147//153 
f 163//172 167//177 161//170 157//166 
f 147//153 157//166 151//156 145//151 
f 157//166 161//170 155//160 151//156 
f 155//160 143//145 139//143 151//156 
f 143//145 133//137 127//131 139//143 
f 151//156 139//143 137//142 145//151 
f 139//143 127//131 125//122 137//142 
f 125//122 123//118 136//136 137//142 
f 123//118 121//106 129//130 136//136 
f 137//142 136//136 147//153 145//151 
f 136//136 129//130 149//155 147//153 
f 113//120 115//123 107//113 103//109 
f 115//123 119//127 111//114 107//113 
f 103//109 107//113 96//94 98//101 
f 107//113 111//114 94//92 96//94 
f 94//92 83//78 85//79 96//94 
f 83//78 75//66 77//70 85//79 
f 96//94 85//79 89//86 98//101 
f 85//79 77//70 79//75 89//86 
f 79//75 87//90 102//103 89//86 
f 87//90 100//98 105//105 102//103 
f 89//86 102//103 103//109 98//101 
f 102//103 105//105 113//120 103//109 
f 67//73 65//62 53//50 55//53 
f 65//62 61//56 51//48 53//50 
f 55//53 53//50 41//37 47//44 
f 53//50 51//48 39//33 41//37 
f 39//33 33//23 35//27 41//37 
f 33//23 27//16 29//21 35//27 
f 41//37 35//27 45//42 47//44 
f 35//27 29//21 43//40 45//42 
f 43//40 63//65 58//61 45//42 
f 63//65 71//87 69//77 58//61 
f 45//42 58//61 55//53 47//44 
f 58//61 69//77 67//73 55//53 
f 19//35 15//18 8//12 17//29 
f 15//18 12//11 5//5 8//12 
f 17//29 8//12 7//7 14//20 
f 8//12 5//5 2//2 7//7 
f 2//2 6//6 9//13 7//7 
f 6//6 13//10 16//19 9//13 
f 7//7 9//13 18//30 14//20 
f 9//13 16//19 20//36 18//30 
f 20//36 23//59 21//45 18//30 
f 23//59 24//84 22//60 21//45 
f 18//30 21//45 17//29 14//20 
f 21//45 22//60 19//35 17//29 
f 44//39 30//22 36//28 46//41 
f 30//22 28//17 34//24 36//28 
f 46//41 36//28 42//38 48//43 
f 36//28 34//24 40//34 42//38 
f 40//34 52//49 54//51 42//38 
f 52//49 62//57 66//63 54//51 
f 42//38 54//51 56//52 48//43 
f 54//51 66//63 68//72 56//52 
f 68//72 70//76 57//58 56//52 
f 70//76 72//88 64//64 57//58 
f 56//52 57//58 46//41 48//43 
f 57//58 64//64 44//39 46//41 
f 80//74 78//71 86//81 90//85 
f 78//71 76//67 84//80 86//81 
f 90//85 86//81 97//100 99//93 
f 86//81 84//80 95//102 97//100 
f 95//102 112//116 108//115 97//100 
f 112//116 120//128 116//124 108//115 
f 97//100 108//115 104//108 99//93 
f 108//115 116//124 114//119 104//108 
f 114//119 106//104 91//91 104//108 
f 106//104 101//99 88//89 91//91 
f 104//108 91//91 90//85 99//93 
f 91//91 88//89 80//74 90//85 
f 150//154 130//129 135//133 148//152 
f 130//129 122//107 124//117 135//133 
f 148//152 135//133 138//141 146//150 
f 135//133 124//117 126//121 138//141 
f 126//121 128//132 140//144 138//141 
f 128//132 134//138 144//146 140//144 
f 138//141 140//144 152//157 146//150 
f 140//144 144//146 156//161 152//157 
f 156//161 162//171 158//167 152//157 
f 162//171 168//178 164//173 158//167 
f 152//157 158//167 148//152 146//150 
f 158//167 164//173 150//154 148//152 
f 182//183 167//177 163//172 177//175 
f 177//175 163//172 149//155 173//158 
f 173//158 149//155 129//130 170//135 
f 170//135 129//130 121//106 169//110 
f 169//110 122//107 130//129 171//134 
f 171//134 130//129 150//154 174//159 
f 174//159 150//154 164//173 178//176 
f 178//176 164//173 168//178 183//184 
f 183//184 181//186 188//191 190//189 
f 190//189 188//191 191//193 192//192 
f 192//192 191//193 187//190 189//188 
f 189//188 187//190 180//185 182//183 
f 133//137 119//127 115//123 127//131 
f 127//131 115//123 113//120 125//122 
f 125//122 113//120 105//105 123//118 
f 123//118 105//105 100//98 121//106 
f 167//177 165//179 159//168 161//170 
f 161//170 159//168 153//162 155//160 
f 155//160 153//162 141//147 143//145 
f 143//145 141//147 131//139 133//137 
f 75//66 61//56 65//62 77//70 
f 77//70 65//62 67//73 79//75 
f 79//75 67//73 69//77 87//90 
f 87//90 69//77 71//87 100//98 
f 119//127 117//125 109//111 111//114 
f 111//114 109//111 92//96 94//92 
f 94//92 92//96 81//82 83//78 
f 83//78 81//82 73//68 75//66 
f 27//16 12//11 15//18 29//21 
f 29//21 15//18 19//35 43//40 
f 43//40 19//35 22//60 63//65 
f 63//65 22//60 24//84 71//87 
f 61//56 59//55 49//47 51//48 
f 51//48 49//47 37//31 39//33 
f 39//33 37//31 31//25 33//23 
f 33//23 31//25 25//14 27//16 
f 13//10 28//17 30//22 16//19 
f 16//19 30//22 44//39 20//36 
f 20//36 44//39 64//64 23//59 
f 23//59 64//64 72//88 24//84 
f 12//11 10//8 3//3 5//5 
f 5//5 3//3 1//1 2//2 
f 2//2 1//1 4//4 6//6 
f 6//6 4//4 11//9 13//10 
f 62//57 76//67 78//71 66//63 
f 66//63 78//71 80//74 68//72 
f 68//72 80//74 88//89 70//76 
f 70//76 88//89 101//99 72//88 
f 28//17 26//15 32//26 34//24 
f 34//24 32//26 38//32 40//34 
f 40//34 38//32 50//46 52//49 
f 52//49 50//46 60//54 62//57 
f 120//128 134//138 128//132 116//124 
f 116//124 128//132 126//121 114//119 
f 114//119 126//121 124//117 106//104 
f 106//104 124//117 122//107 101//99 
f 76//67 74//69 82//83 84//80 
f 84//80 82//83 93//97 95//102 
f 95//102 93//97 110//112 112//116 
f 112//116 110//112 118//126 120//128 
f 134//138 132//140 142//148 144//146 
f 144//146 142//148 154//163 156//161 
f 156//161 154//163 160//169 162//171 
f 162//171 160//169 166//180 168//178 
f 182//183 180//185 165//179 167//177 
f 133//137 131//139 117//125 119//127 
f 75//66 73//68 59//55 61//56 
f 27//16 25//14 10//8 12//11 
f 13//10 11//9 26//15 28//17 
f 62//57 60//54 74//69 76//67 
f 120//128 118//126 132//140 134//138 
f 168//178 166//180 181//186 183//184 
f 169//110 121//106 100//98 71//87 24//84 72//88 101//99 122//107 
f 131//95 141//95 153//95 159//95 165//95 180//95 187//95 191//95 188//95 181//95 166//95 160//95 154//95 142//95 132//95 118//95 110//95 93//95 82//95 74//95 60//95 50//95 38//95 32//95 26//95 11//95 4//95 1//95 3//95 10//95 25//95 31//95 37//95 49//95 59//95 73//95 81//95 92//95 109//95 117//95 
