#Wavefront OBJ file created by Hexagon 2 
mtllib pentangular02.mtl
g Shape5
usemtl def_surf_mat
# 190 
v -4.78226 10.6565 10.2402 
v -4.78225 10.6565 14.1514 
v -4.78226 14.6782 10.2402 
v -4.78225 14.6782 14.1514 
v -4.75724 10.6565 10.0839 
v -4.75724 10.6565 14.3076 
v -4.75724 14.6782 10.0839 
v -4.75724 14.6782 14.3076 
v -4.74296 10.4619 10.2402 
v -4.74296 10.4619 14.1514 
v -4.74296 14.8729 10.2402 
v -4.74296 14.8729 14.1514 
v -4.72726 10.4831 14.2994 
v -4.72726 14.8517 10.0921 
v -4.72722 10.4865 10.0881 
v -4.72721 14.8482 14.3034 
v -4.68676 10.6565 9.94628 
v -4.68676 10.6565 14.4452 
v -4.68676 14.6782 9.94628 
v -4.68676 14.6782 14.4452 
v -4.67137 10.5199 9.95747 
v -4.67137 10.5199 14.4341 
v -4.67137 14.8149 9.95747 
v -4.67137 14.8149 14.4341 
v -4.64413 10.3368 10.1105 
v -4.64413 10.3368 14.281 
v -4.64413 14.998 10.1105 
v -4.64413 14.998 14.281 
v -4.63581 10.303 10.2402 
v -4.63581 10.303 14.1514 
v -4.63581 15.0318 10.2402 
v -4.63581 15.0318 14.1514 
v -4.62635 10.3937 9.99017 
v -4.62635 10.3937 14.4014 
v -4.62635 14.9411 9.99017 
v -4.62635 14.9411 14.4014 
v -4.57765 10.6565 9.83673 
v -4.57765 10.6565 14.5548 
v -4.57765 14.6782 9.83673 
v -4.57765 14.6782 14.5548 
v -4.56435 10.4865 14.5276 
v -4.56435 14.8482 9.86397 
v -4.56056 10.4831 9.8627 
v -4.56056 14.8517 14.5288 
v -4.51741 10.3368 9.93609 
v -4.51741 10.3368 14.4554 
v -4.51741 14.998 9.93609 
v -4.51741 14.998 14.4554 
v -4.51053 10.242 10.0787 
v -4.51053 15.0928 14.3129 
v -4.5064 10.242 14.3185 
v -4.5064 15.0928 10.073 
v -4.47688 10.1958 10.2402 
v -4.47688 10.1958 14.1514 
v -4.47688 15.1389 10.2402 
v -4.47688 15.1389 14.1514 
v -4.43676 10.6565 9.76465 
v -4.43676 10.6565 14.6269 
v -4.43676 14.6782 9.76465 
v -4.43676 14.6782 14.6269 
v -4.42462 10.4619 9.80202 
v -4.42462 10.4619 14.5895 
v -4.42462 14.8729 9.80202 
v -4.42462 14.8729 14.5895 
v -4.39151 10.303 9.90393 
v -4.39151 10.303 14.4876 
v -4.39151 15.0318 9.90393 
v -4.39151 15.0318 14.4876 
v -4.34239 10.1958 10.0551 
v -4.34239 10.1958 14.3365 
v -4.34239 15.1389 10.0551 
v -4.34239 15.1389 14.3365 
v -4.28226 10.1565 10.2402 
v -4.28225 10.1565 14.1514 
v -4.28226 15.1782 10.2402 
v -4.28225 15.1782 14.1514 
v -0.716829 10.6565 8.55601 
v -0.716828 10.6565 15.8355 
v -0.716829 14.6782 8.55601 
v -0.716828 14.6782 15.8355 
v -0.704687 10.4619 8.59338 
v -0.704687 10.4619 15.7981 
v -0.704687 14.8729 8.59338 
v -0.704687 14.8729 15.7981 
v -0.671576 10.303 8.69529 
v -0.671575 10.303 15.6962 
v -0.671576 15.0318 8.69529 
v -0.671575 15.0318 15.6962 
v -0.622465 10.1958 8.84645 
v -0.622465 10.1958 15.5451 
v -0.622465 15.1389 8.84645 
v -0.622465 15.1389 15.5451 
v -0.562326 10.1565 9.03154 
v -0.562325 10.1565 15.36 
v -0.562326 15.1782 9.03154 
v -0.562325 15.1782 15.36 
v -0.56048 10.6565 8.53151 
v -0.560479 10.6565 15.86 
v -0.56048 14.6782 8.53151 
v -0.560479 14.6782 15.86 
v -0.559045 10.4831 15.829 
v -0.559045 14.8517 8.56257 
v -0.555227 10.4865 8.56138 
v -0.555226 14.8482 15.8302 
v -0.55082 10.3368 8.64731 
v -0.550819 10.3368 15.7442 
v -0.55082 14.998 8.64731 
v -0.550819 14.998 15.7442 
v -0.479256 10.242 8.76453 
v -0.479256 15.0928 15.627 
v -0.472585 10.242 15.6248 
v -0.472585 15.0928 8.7667 
v -0.430894 10.3937 8.62703 
v -0.430893 10.3937 15.7645 
v -0.430894 14.9411 8.62703 
v -0.430893 14.9411 15.7645 
v -0.413699 10.5199 8.57411 
v -0.413699 10.5199 15.8174 
v -0.4137 14.8149 8.57411 
v -0.413699 14.8149 15.8174 
v -0.407819 10.6565 8.55602 
v -0.407818 10.6565 15.8355 
v -0.407819 14.6782 8.55602 
v -0.407818 14.6782 15.8355 
v -0.404875 10.1958 8.91714 
v -0.404874 10.1958 15.4744 
v -0.404875 15.1389 8.91714 
v -0.404874 15.1389 15.4744 
v -0.345789 10.3368 8.71393 
v -0.345788 10.3368 15.6776 
v -0.345789 14.998 8.71393 
v -0.345788 14.998 15.6776 
v -0.291715 10.4865 15.7445 
v -0.291715 14.8482 8.647 
v -0.289329 10.4831 8.65021 
v -0.289328 14.8517 15.7413 
v -0.276299 10.303 8.82372 
v -0.276298 10.303 15.5678 
v -0.276299 15.0318 8.82372 
v -0.276298 15.0318 15.5678 
v -0.269911 10.6565 8.62592 
v -0.269911 10.6565 15.7656 
v -0.269911 14.6782 8.62592 
v -0.269911 14.6782 15.7656 
v -0.18961 10.4619 8.76074 
v -0.18961 10.4619 15.6308 
v -0.18961 14.8729 8.76074 
v -0.18961 14.8729 15.6308 
v -0.157822 10.6565 8.73764 
v -0.157822 10.6565 15.6539 
v -0.157822 14.6782 8.73764 
v -0.157822 14.6782 15.6539 
v 1.7367 10.1565 12.1958 
v 1.7367 15.1782 12.1958 
v 1.89415 10.1958 12.0814 
v 1.89415 10.1958 12.3102 
v 1.89415 15.1389 12.0814 
v 1.89415 15.1389 12.3102 
v 2.01631 10.242 12.1923 
v 2.01631 15.0928 12.1993 
v 2.02273 10.303 11.9879 
v 2.02273 10.303 12.4036 
v 2.02273 15.0318 11.9879 
v 2.02273 15.0318 12.4036 
v 2.10568 10.3368 12.088 
v 2.10568 10.3368 12.3036 
v 2.10568 14.998 12.088 
v 2.10568 14.998 12.3036 
v 2.10942 10.4619 11.925 
v 2.10942 10.4619 12.4666 
v 2.10942 14.8729 11.925 
v 2.10942 14.8729 12.4666 
v 2.14121 10.6565 11.9019 
v 2.14121 10.6565 12.4897 
v 2.14121 14.6782 11.9019 
v 2.14121 14.6782 12.4897 
v 2.16203 10.3937 12.1958 
v 2.16203 14.9411 12.1958 
v 2.18373 10.4831 12.3376 
v 2.18373 14.8517 12.054 
v 2.18605 10.4865 12.0572 
v 2.18605 14.8482 12.3343 
v 2.21283 10.6565 12.043 
v 2.21283 10.6565 12.3485 
v 2.21283 14.6782 12.043 
v 2.21283 14.6782 12.3485 
v 2.21767 10.5199 12.1958 
v 2.21767 14.8149 12.1958 
v 2.2367 10.6565 12.1958 
v 2.2367 14.6782 12.1958 
# 190 
vn -0.992416 -0.0967418 0.0758361 
vn -0.992416 0.0967423 -0.0758364 
vn -0.992402 -0.0968165 -0.0759304 
vn -0.992402 0.0968169 0.075931 
vn -0.949229 -0.087164 0.30227 
vn -0.949228 0.0871648 -0.302271 
vn -0.949 -0.0862928 -0.303237 
vn -0.949 0.0862939 0.303237 
vn -0.92424 -0.375313 -0.0701491 
vn -0.92424 0.375313 0.0701501 
vn -0.924006 -0.376103 0.0689931 
vn -0.924006 0.376103 -0.0689942 
vn -0.897261 -0.337868 -0.284197 
vn -0.897261 0.337868 0.284196 
vn -0.897241 -0.339605 0.282183 
vn -0.89724 0.339606 -0.282185 
vn -0.806987 -0.0788591 0.585281 
vn -0.806987 0.0788596 -0.58528 
vn -0.805998 -0.0788594 -0.586642 
vn -0.805999 0.0788599 0.58664 
vn -0.7695 -0.310584 0.558039 
vn -0.7695 0.310584 -0.558038 
vn -0.768506 -0.310584 -0.559407 
vn -0.768508 0.310584 0.559404 
vn -0.71832 -0.636709 -0.280388 
vn -0.718323 0.636708 0.280386 
vn -0.717056 -0.637912 0.28089 
vn -0.717055 0.637913 -0.28089 
vn -0.715258 -0.69543 -0.0691583 
vn -0.715259 0.69543 0.0691583 
vn -0.714024 -0.696648 0.0696561 
vn -0.714024 0.696648 -0.069657 
vn -0.680721 -0.540382 -0.494577 
vn -0.680718 -0.54038 0.494583 
vn -0.680717 0.540381 -0.494583 
vn -0.680723 0.540382 0.494574 
vn -0.581641 -0.086292 0.808855 
vn -0.581643 0.0862924 -0.808854 
vn -0.580794 -0.0871643 -0.80937 
vn -0.580794 0.0871641 0.80937 
vn -0.547546 -0.337868 0.765532 
vn -0.547546 0.337868 -0.765531 
vn -0.545626 -0.339606 -0.766133 
vn -0.545626 0.339606 0.766133 
vn -0.488719 -0.637913 -0.595165 
vn -0.488717 0.637913 0.595166 
vn -0.488631 -0.636706 0.596528 
vn -0.488629 0.636707 -0.596528 
vn -0.439303 -0.840574 -0.316936 
vn -0.439303 0.840574 0.316936 
vn -0.437172 -0.840573 0.31987 
vn -0.437172 0.840574 -0.319869 
vn -0.400156 -0.912992 -0.0795005 
vn -0.400156 0.912992 0.0795 
vn -0.399211 -0.913269 0.0810571 
vn -0.399211 0.913269 -0.0810565 
vn -0.378873 -0.0968163 0.920371 
vn -0.378874 0.0968165 -0.92037 
vn -0.378789 -0.0967424 -0.920413 
vn -0.378788 0.0967422 0.920413 
vn -0.352313 -0.375312 0.857331 
vn -0.352313 0.375313 -0.857331 
vn -0.351142 -0.376103 -0.857465 
vn -0.35114 0.376102 0.857466 
vn -0.286889 -0.696647 -0.657555 
vn -0.286887 0.696647 0.657555 
vn -0.286795 -0.695429 0.658884 
vn -0.286794 0.695428 -0.658884 
vn -0.234539 -0.096742 0.967281 
vn -0.23454 0.0967424 -0.967281 
vn -0.234446 -0.0968165 -0.967296 
vn -0.234444 0.0968166 0.967297 
vn -0.219908 -0.376103 0.900104 
vn -0.219908 0.376102 -0.900104 
vn -0.21888 -0.375312 -0.900684 
vn -0.218881 0.375312 0.900684 
vn -0.200452 -0.913269 -0.354626 
vn -0.200451 0.913269 0.354626 
vn -0.19926 -0.912992 0.356007 
vn -0.19926 0.912992 -0.356007 
vn -0.155246 -0.695428 -0.701626 
vn -0.155248 0.695429 0.701624 
vn -0.154391 -0.696647 0.700605 
vn -0.15439 0.696646 -0.700605 
vn -0.124999 -0.987992 -0.0908179 
vn -0.124998 -0.987992 0.0908172 
vn -0.124998 0.987992 -0.0908168 
vn -0.124999 0.987992 0.0908181 
vn -0.0480432 -0.912991 -0.405141 
vn -0.0480431 0.912992 0.405139 
vn -0.0462693 -0.913268 0.404723 
vn -0.0462694 0.913268 -0.404723 
vn -0.00888947 -0.339604 0.940526 
vn -0.00888801 0.339604 -0.940526 
vn -0.0069819 -0.337866 -0.941168 
vn -0.00697986 0.337867 0.941168 
vn -0.00584886 -0.0871627 0.996177 
vn -0.00584925 0.0871639 -0.996177 
vn -0.00486013 -0.0862918 -0.996258 
vn -0.00485935 0.0862919 0.996258 
vn 0.0446884 -0.636704 -0.769813 
vn 0.0446896 0.636706 0.76981 
vn 0.0455586 -0.63791 0.768762 
vn 0.0455605 0.637909 -0.768763 
vn 0.0477454 -0.987991 -0.146947 
vn 0.0477451 -0.987992 0.146946 
vn 0.0477452 0.987991 -0.146947 
vn 0.0477454 0.987991 0.146947 
vn 0.154505 -0.987992 -1.74896e-007 
vn 0.154505 0.987992 -1.76411e-007 
vn 0.165667 -0.84057 -0.515749 
vn 0.165668 0.840572 0.515745 
vn 0.169116 -0.840571 0.514627 
vn 0.169116 0.84057 -0.514628 
vn 0.260002 -0.540378 -0.800244 
vn 0.260014 -0.540378 0.80024 
vn 0.260014 0.540377 -0.800241 
vn 0.260006 0.540378 0.800243 
vn 0.275321 -0.913268 -0.300234 
vn 0.275321 0.913268 0.300232 
vn 0.277001 -0.912992 0.299528 
vn 0.277001 0.912991 -0.299529 
vn 0.292928 -0.310581 0.904286 
vn 0.292928 0.310582 -0.904285 
vn 0.294532 -0.310581 -0.903764 
vn 0.294536 0.310581 0.903763 
vn 0.307251 -0.0788576 0.948356 
vn 0.307252 0.0788584 -0.948355 
vn 0.30885 -0.0788576 -0.947836 
vn 0.30885 0.0788577 0.947836 
vn 0.370458 -0.912993 -0.170894 
vn 0.370458 0.912993 0.170893 
vn 0.370609 -0.91327 0.169078 
vn 0.37061 0.913269 -0.169078 
vn 0.415002 -0.637909 -0.648726 
vn 0.415004 0.63791 0.648724 
vn 0.416325 -0.636704 0.649062 
vn 0.416325 0.636704 -0.649062 
vn 0.536708 -0.696646 -0.476055 
vn 0.536708 0.696647 0.476054 
vn 0.537999 -0.695429 0.476378 
vn 0.537999 0.695429 -0.476378 
vn 0.541691 -0.840576 -0.00181339 
vn 0.541691 0.840575 0.00181247 
vn 0.558848 -0.337866 0.757322 
vn 0.558848 0.337866 -0.757321 
vn 0.560013 -0.339604 -0.755682 
vn 0.560014 0.339603 0.755681 
vn 0.589512 -0.086292 0.803137 
vn 0.589512 0.0862921 -0.803137 
vn 0.590264 -0.0871628 -0.80249 
vn 0.590265 0.0871631 0.80249 
vn 0.618595 -0.696649 0.363347 
vn 0.618596 0.696648 -0.363347 
vn 0.6193 -0.69543 -0.364478 
vn 0.619299 0.695431 0.364479 
vn 0.706484 -0.375313 0.600018 
vn 0.706484 0.375312 -0.600018 
vn 0.706975 -0.376102 -0.598944 
vn 0.706975 0.376102 0.598943 
vn 0.745209 -0.637915 0.194235 
vn 0.745211 0.637914 -0.194236 
vn 0.745938 -0.63671 -0.195389 
vn 0.745937 0.63671 0.195391 
vn 0.758229 -0.0968163 0.64476 
vn 0.758228 0.0968163 -0.644761 
vn 0.758296 -0.0967416 -0.644692 
vn 0.758297 0.0967419 0.644691 
vn 0.788082 -0.376104 0.487311 
vn 0.788082 0.376103 -0.487312 
vn 0.788951 -0.375313 -0.486515 
vn 0.78895 0.375314 0.486516 
vn 0.841419 -0.540384 -3.72369e-006 
vn 0.841419 0.540383 5.41628e-006 
vn 0.847448 -0.0967421 0.521989 
vn 0.847449 0.096742 -0.521989 
vn 0.847492 -0.0968166 -0.521904 
vn 0.847492 0.0968166 0.521903 
vn 0.891743 -0.339608 0.299101 
vn 0.891743 0.339607 -0.299102 
vn 0.892942 -0.33787 -0.297487 
vn 0.892941 0.33787 0.297489 
vn 0.945609 -0.0871642 0.313412 
vn 0.945609 0.0871641 -0.313412 
vn 0.945991 -0.086293 -0.312496 
vn 0.945992 0.0862928 0.312496 
vn 0.950545 -0.310586 0.000845634 
vn 0.950545 0.310586 -0.000844457 
vn 0.996885 -0.0788594 0.000840635 
vn 0.996885 0.0788592 -0.000840756 
usemtl def_surf_mat
f 163//154 157//134 160//144 167//162 
f 157//134 154//110 158//132 160//144 
f 167//162 160//144 168//164 178//174 
f 160//144 158//132 164//156 168//164 
f 164//156 172//172 182//182 168//164 
f 172//172 176//178 186//186 182//182 
f 168//164 182//182 188//188 178//174 
f 182//182 186//186 190//190 188//188 
f 190//190 185//184 180//180 188//188 
f 185//184 175//176 171//170 180//180 
f 188//188 180//180 167//162 178//174 
f 180//180 171//170 163//154 167//162 
f 139//142 147//158 134//146 131//138 
f 147//158 151//166 143//150 134//146 
f 131//138 134//146 119//124 115//117 
f 134//146 143//150 123//128 119//124 
f 123//128 99//98 102//94 119//124 
f 99//98 79//70 83//74 102//94 
f 119//124 102//94 107//104 115//117 
f 102//94 83//74 87//84 107//104 
f 87//84 91//92 112//114 107//104 
f 91//92 95//107 127//122 112//114 
f 107//104 112//114 131//138 115//117 
f 112//114 127//122 139//142 131//138 
f 67//68 63//62 42//42 47//48 
f 63//62 59//58 39//38 42//42 
f 47//48 42//42 23//22 35//35 
f 42//42 39//38 19//18 23//22 
f 19//18 7//6 14//16 23//22 
f 7//6 3//2 11//12 14//16 
f 23//22 14//16 27//28 35//35 
f 14//16 11//12 31//32 27//28 
f 31//32 55//56 52//52 27//28 
f 55//56 75//87 71//80 52//52 
f 27//28 52//52 47//48 35//35 
f 52//52 71//80 67//68 47//48 
f 32//30 12//10 16//14 28//26 
f 12//10 4//4 8//8 16//14 
f 28//26 16//14 24//24 36//36 
f 16//14 8//8 20//20 24//24 
f 20//20 40//40 44//44 24//24 
f 40//40 60//60 64//64 44//44 
f 24//24 44//44 48//46 36//36 
f 44//44 64//64 68//66 48//46 
f 68//66 72//78 50//50 48//46 
f 72//78 76//88 56//54 50//50 
f 48//46 50//50 28//26 36//36 
f 50//50 56//54 32//30 28//26 
f 140//140 128//120 110//112 132//136 
f 128//120 96//108 92//90 110//112 
f 132//136 110//112 108//102 116//118 
f 110//112 92//90 88//82 108//102 
f 88//82 84//76 104//96 108//102 
f 84//76 80//72 100//100 104//96 
f 108//102 104//96 120//126 116//118 
f 104//96 100//100 124//130 120//126 
f 124//130 144//152 136//148 120//126 
f 144//152 152//168 148//160 136//148 
f 120//126 136//148 132//136 116//118 
f 136//148 148//160 140//140 132//136 
f 189//189 184//183 179//179 187//187 
f 184//183 174//175 170//169 179//179 
f 187//187 179//179 166//161 177//173 
f 179//179 170//169 162//153 166//161 
f 162//153 156//133 159//143 166//161 
f 156//133 153//109 155//131 159//143 
f 166//161 159//143 165//163 177//173 
f 159//143 155//131 161//155 165//163 
f 161//155 169//171 181//181 165//163 
f 169//171 173//177 183//185 181//181 
f 165//163 181//181 187//187 177//173 
f 181//181 183//185 189//189 187//187 
f 121//129 141//151 135//147 117//125 
f 141//151 149//167 145//159 135//147 
f 117//125 135//147 129//135 113//115 
f 135//147 145//159 137//139 129//135 
f 137//139 125//119 109//111 129//135 
f 125//119 93//105 89//89 109//111 
f 129//135 109//111 105//101 113//115 
f 109//111 89//89 85//81 105//101 
f 85//81 81//75 103//95 105//101 
f 81//75 77//71 97//99 103//95 
f 105//101 103//95 117//125 113//115 
f 103//95 97//99 121//129 117//125 
f 17//19 37//39 43//43 21//23 
f 37//39 57//59 61//63 43//43 
f 21//23 43//43 45//45 33//33 
f 43//43 61//63 65//65 45//45 
f 65//65 69//77 49//49 45//45 
f 69//77 73//85 53//53 49//49 
f 45//45 49//49 25//25 33//33 
f 49//49 53//53 29//29 25//25 
f 29//29 9//9 15//13 25//25 
f 9//9 1//3 5//7 15//13 
f 25//25 15//13 21//23 33//33 
f 15//13 5//7 17//19 21//23 
f 18//17 6//5 13//15 22//21 
f 6//5 2//1 10//11 13//15 
f 22//21 13//15 26//27 34//34 
f 13//15 10//11 30//31 26//27 
f 30//31 54//55 51//51 26//27 
f 54//55 74//86 70//79 51//51 
f 26//27 51//51 46//47 34//34 
f 51//51 70//79 66//67 46//47 
f 66//67 62//61 41//41 46//47 
f 62//61 58//57 38//37 41//41 
f 46//47 41//41 22//21 34//34 
f 41//41 38//37 18//17 22//21 
f 122//127 98//97 101//93 118//123 
f 98//97 78//69 82//73 101//93 
f 118//123 101//93 106//103 114//116 
f 101//93 82//73 86//83 106//103 
f 86//83 90//91 111//113 106//103 
f 90//91 94//106 126//121 111//113 
f 106//103 111//113 130//137 114//116 
f 111//113 126//121 138//141 130//137 
f 138//141 146//157 133//145 130//137 
f 146//157 150//165 142//149 133//145 
f 130//137 133//145 118//123 114//116 
f 133//145 142//149 122//127 118//123 
f 175//176 151//166 147//158 171//170 
f 171//170 147//158 139//142 163//154 
f 163//154 139//142 127//122 157//134 
f 157//134 127//122 95//107 154//110 
f 154//110 96//108 128//120 158//132 
f 158//132 128//120 140//140 164//156 
f 164//156 140//140 148//160 172//172 
f 172//172 148//160 152//168 176//178 
f 176//178 174//175 184//183 186//186 
f 186//186 184//183 189//189 190//190 
f 190//190 189//189 183//185 185//184 
f 185//184 183//185 173//177 175//176 
f 79//70 59//58 63//62 83//74 
f 83//74 63//62 67//68 87//84 
f 87//84 67//68 71//80 91//92 
f 91//92 71//80 75//87 95//107 
f 151//166 149//167 141//151 143//150 
f 143//150 141//151 121//129 123//128 
f 123//128 121//129 97//99 99//98 
f 99//98 97//99 77//71 79//70 
f 3//2 4//4 12//10 11//12 
f 11//12 12//10 32//30 31//32 
f 31//32 32//30 56//54 55//56 
f 55//56 56//54 76//88 75//87 
f 59//58 57//59 37//39 39//38 
f 39//38 37//39 17//19 19//18 
f 19//18 17//19 5//7 7//6 
f 7//6 5//7 1//3 3//2 
f 60//60 80//72 84//76 64//64 
f 64//64 84//76 88//82 68//66 
f 68//66 88//82 92//90 72//78 
f 72//78 92//90 96//108 76//88 
f 4//4 2//1 6//5 8//8 
f 8//8 6//5 18//17 20//20 
f 20//20 18//17 38//37 40//40 
f 40//40 38//37 58//57 60//60 
f 80//72 78//69 98//97 100//100 
f 100//100 98//97 122//127 124//130 
f 124//130 122//127 142//149 144//152 
f 144//152 142//149 150//165 152//168 
f 153//109 93//105 125//119 155//131 
f 155//131 125//119 137//139 161//155 
f 161//155 137//139 145//159 169//171 
f 169//171 145//159 149//167 173//177 
f 174//175 150//165 146//157 170//169 
f 170//169 146//157 138//141 162//153 
f 162//153 138//141 126//121 156//133 
f 156//133 126//121 94//106 153//109 
f 93//105 73//85 69//77 89//89 
f 89//89 69//77 65//65 85//81 
f 85//81 65//65 61//63 81//75 
f 81//75 61//63 57//59 77//71 
f 73//85 74//86 54//55 53//53 
f 53//53 54//55 30//31 29//29 
f 29//29 30//31 10//11 9//9 
f 9//9 10//11 2//1 1//3 
f 74//86 94//106 90//91 70//79 
f 70//79 90//91 86//83 66//67 
f 66//67 86//83 82//73 62//61 
f 62//61 82//73 78//69 58//57 
f 175//176 173//177 149//167 151//166 
f 79//70 77//71 57//59 59//58 
f 3//2 1//3 2//1 4//4 
f 60//60 58//57 78//69 80//72 
f 152//168 150//165 174//175 176//178 
f 154//110 95//107 75//87 76//88 96//108 
f 93//105 153//109 94//106 74//86 73//85 
