#Wavefront OBJ file created by Hexagon 2 
mtllib pentangular.mtl
g Shape21
usemtl def_surf_mat
# 10 
v -3.45217 2.42907 16.0522 
v -3.45217 7.97866 16.0522 
v -3.45217 2.42907 8.33932 
v -3.45217 7.97866 8.33932 
v 3.88323 2.42907 18.4356 
v 3.88323 7.97866 18.4356 
v 3.88323 2.42907 5.9559 
v 3.88323 7.97866 5.9559 
v 8.41675 2.42907 12.1958 
v 8.41675 7.97866 12.1958 
# 7 
vn -1 0 1.27244e-007 
vn -0.309017 -1.41137e-008 0.951057 
vn -0.309017 -4.19469e-008 -0.951056 
vn 0 -1 0 
vn -6.03493e-009 1 0 
vn 0.809017 -4.95058e-009 0.587785 
vn 0.809017 -1.05945e-008 -0.587785 
usemtl def_surf_mat
f 10//7 9//7 7//7 8//7 
f 8//3 7//3 3//3 4//3 
f 4//1 3//1 1//1 2//1 
f 2//2 1//2 5//2 6//2 
f 6//6 5//6 9//6 10//6 
f 10//5 8//5 4//5 2//5 6//5 
f 7//4 9//4 5//4 1//4 3//4 
