#Wavefront OBJ file created by Hexagon 2 
mtllib thirtytwo.mtl
g Shape21
usemtl def_surf_mat
# 64 
v -6.01673 2.19533 12.1958 
v -6.01673 7.63117 12.1958 
v -5.89369 2.19533 13.445 
v -5.89369 7.63117 13.445 
v -5.89369 2.19533 10.9465 
v -5.89369 7.63117 10.9465 
v -5.5293 2.19533 14.6463 
v -5.5293 7.63117 14.6463 
v -5.5293 2.19533 9.74527 
v -5.5293 7.63117 9.74527 
v -4.93756 2.19533 15.7533 
v -4.93756 7.63117 15.7533 
v -4.93756 2.19533 8.6382 
v -4.93756 7.63117 8.6382 
v -4.14121 2.19533 16.7237 
v -4.14121 7.63117 16.7237 
v -4.14121 2.19533 7.66784 
v -4.14121 7.63117 7.66784 
v -3.17085 2.19533 17.52 
v -3.17085 7.63117 17.52 
v -3.17085 2.19533 6.87149 
v -3.17085 7.63117 6.87149 
v -2.06377 2.19533 18.1118 
v -2.06377 7.63117 18.1118 
v -2.06378 2.19533 6.27974 
v -2.06378 7.63117 6.27974 
v -0.862531 2.19533 18.4762 
v -0.862531 7.63117 18.4762 
v -0.862532 2.19533 5.91535 
v -0.862532 7.63117 5.91535 
v 0.386721 2.19533 18.5992 
v 0.386721 7.63117 18.5992 
v 0.38672 2.19533 5.79231 
v 0.38672 7.63117 5.79231 
v 1.63597 2.19533 18.4762 
v 1.63597 7.63117 18.4762 
v 1.63597 2.19533 5.91535 
v 1.63597 7.63117 5.91535 
v 2.83722 2.19533 18.1118 
v 2.83722 7.63117 18.1118 
v 2.83722 2.19533 6.27974 
v 2.83722 7.63117 6.27974 
v 3.94429 2.19533 17.52 
v 3.94429 7.63117 17.52 
v 3.94429 2.19533 6.87149 
v 3.94429 7.63117 6.87149 
v 4.91465 2.19533 16.7237 
v 4.91465 7.63117 16.7237 
v 4.91465 2.19533 7.66784 
v 4.91465 7.63117 7.66784 
v 5.711 2.19533 15.7533 
v 5.711 7.63117 15.7533 
v 5.711 2.19533 8.6382 
v 5.711 7.63117 8.6382 
v 6.30274 2.19533 14.6463 
v 6.30274 7.63117 14.6463 
v 6.30274 2.19533 9.74527 
v 6.30274 7.63117 9.74527 
v 6.66714 2.19533 13.445 
v 6.66714 7.63117 13.445 
v 6.66714 2.19533 10.9465 
v 6.66714 7.63117 10.9465 
v 6.79018 2.19533 12.1958 
v 6.79018 7.63117 12.1958 
# 34 
vn -1 2.37181e-010 3.36898e-008 
vn -0.980785 -1.64457e-011 0.195091 
vn -0.980785 8.81765e-010 -0.195091 
vn -0.923879 2.82346e-009 0.382684 
vn -0.92388 5.06761e-009 -0.382684 
vn -0.83147 4.73776e-009 0.55557 
vn -0.83147 2.39238e-009 -0.55557 
vn -0.707107 -8.20607e-009 0.707107 
vn -0.707107 3.01171e-009 -0.707107 
vn -0.55557 -7.65239e-009 0.83147 
vn -0.55557 1.19101e-008 -0.83147 
vn -0.382683 1.87374e-010 0.92388 
vn -0.382684 1.45333e-008 -0.92388 
vn -0.19509 -9.37698e-009 0.980785 
vn -0.19509 2.21811e-008 -0.980785 
vn 0 -9.51905e-009 1 
vn 0 -1 0 
vn -1.47145e-008 1 0 
vn -1.87166e-007 2.42161e-008 -1 
vn 0.19509 -1.14333e-008 0.980785 
vn 0.19509 1.45019e-008 -0.980785 
vn 0.382684 -1.78344e-008 0.923879 
vn 0.382683 8.10332e-009 -0.92388 
vn 0.555571 -5.8464e-009 0.831469 
vn 0.55557 -7.06585e-009 -0.83147 
vn 0.707107 4.34512e-009 0.707107 
vn 0.707107 -8.63002e-009 -0.707107 
vn 0.831469 4.55915e-009 0.555571 
vn 0.83147 4.71925e-009 -0.55557 
vn 0.92388 9.29185e-010 0.382683 
vn 0.923879 3.78293e-009 -0.382684 
vn 0.980785 -2.38438e-009 0.19509 
vn 0.980785 5.25502e-010 -0.19509 
vn 1 -4.14588e-010 -7.48663e-009 
usemtl def_surf_mat
f 64//34 63//34 61//33 62//33 
f 62//33 61//33 57//31 58//31 
f 58//31 57//31 53//29 54//29 
f 54//29 53//29 49//27 50//27 
f 50//27 49//27 45//25 46//25 
f 46//25 45//25 41//23 42//23 
f 42//23 41//23 37//21 38//21 
f 38//21 37//21 33//19 34//19 
f 34//19 33//19 29//15 30//15 
f 30//15 29//15 25//13 26//13 
f 26//13 25//13 21//11 22//11 
f 22//11 21//11 17//9 18//9 
f 18//9 17//9 13//7 14//7 
f 14//7 13//7 9//5 10//5 
f 10//5 9//5 5//3 6//3 
f 6//3 5//3 1//1 2//1 
f 2//1 1//1 3//2 4//2 
f 4//2 3//2 7//4 8//4 
f 8//4 7//4 11//6 12//6 
f 12//6 11//6 15//8 16//8 
f 16//8 15//8 19//10 20//10 
f 20//10 19//10 23//12 24//12 
f 24//12 23//12 27//14 28//14 
f 28//14 27//14 31//16 32//16 
f 32//16 31//16 35//20 36//20 
f 36//20 35//20 39//22 40//22 
f 40//22 39//22 43//24 44//24 
f 44//24 43//24 47//26 48//26 
f 48//26 47//26 51//28 52//28 
f 52//28 51//28 55//30 56//30 
f 56//30 55//30 59//32 60//32 
f 60//32 59//32 63//34 64//34 
f 64//18 62//18 58//18 54//18 50//18 46//18 42//18 38//18 34//18 30//18 26//18 22//18 18//18 14//18 10//18 6//18 2//18 4//18 8//18 12//18 16//18 20//18 24//18 28//18 32//18 36//18 40//18 44//18 48//18 52//18 56//18 60//18 
f 61//17 63//17 59//17 55//17 51//17 47//17 43//17 39//17 35//17 31//17 27//17 23//17 19//17 15//17 11//17 7//17 3//17 1//17 5//17 9//17 13//17 17//17 21//17 25//17 29//17 33//17 37//17 41//17 45//17 49//17 53//17 57//17 
