#Wavefront OBJ file created by Hexagon 2 
mtllib triangular02.mtl
g Shape5
usemtl def_surf_mat
# 114 
v -4.88808 7.4765 8.31203 
v -4.88808 7.4765 16.0795 
v -4.88808 13.7111 8.31203 
v -4.88808 13.7111 16.0795 
v -4.84879 7.28188 8.31203 
v -4.84879 7.28188 16.0795 
v -4.84879 13.9057 8.31203 
v -4.84879 13.9057 16.0795 
v -4.81777 7.4765 8.05493 
v -4.81777 7.4765 16.3366 
v -4.81777 13.7111 8.05493 
v -4.81777 13.7111 16.3366 
v -4.77997 7.2688 8.08082 
v -4.77997 13.9188 16.3107 
v -4.77784 7.25901 16.3049 
v -4.77784 13.9286 8.0866 
v -4.74164 7.12295 8.31203 
v -4.74164 7.12295 16.0795 
v -4.74164 14.0646 8.31203 
v -4.74164 14.0646 16.0795 
v -4.67155 7.09853 8.14837 
v -4.67155 7.09853 16.2432 
v -4.67155 14.0891 8.14837 
v -4.67155 14.0891 16.2432 
v -4.63808 7.4765 7.87902 
v -4.63808 7.4765 16.5125 
v -4.63808 13.7111 7.87902 
v -4.63808 13.7111 16.5125 
v -4.61905 7.28515 7.91198 
v -4.61905 7.28515 16.4795 
v -4.61905 13.9024 7.91198 
v -4.61905 13.9024 16.4795 
v -4.58271 7.01579 8.31203 
v -4.58271 7.01579 16.0795 
v -4.58271 14.1718 8.31203 
v -4.58271 14.1718 16.0795 
v -4.56485 7.12294 8.00585 
v -4.56485 7.12294 16.3857 
v -4.56485 14.0647 8.00585 
v -4.56485 14.0647 16.3857 
v -4.49373 7.0212 8.13434 
v -4.49373 14.1664 16.2572 
v -4.48914 7.0212 16.2598 
v -4.48914 14.1664 8.13169 
v -4.39588 7.4765 7.81136 
v -4.39588 7.4765 16.5802 
v -4.39588 13.7111 7.81136 
v -4.39588 13.7111 16.5802 
v -4.39236 7.2688 16.5345 
v -4.39237 13.9188 7.85704 
v -4.38842 7.25901 7.86178 
v -4.38842 13.9286 16.5297 
v -4.38808 6.9765 8.31203 
v -4.38808 6.9765 16.0795 
v -4.38807 7.09853 7.98471 
v -4.38808 14.2111 8.31203 
v -4.38807 7.09853 16.4068 
v -4.38807 14.0891 7.98471 
v -4.38807 14.0891 16.4068 
v -4.38808 14.2111 16.0795 
v -4.29077 7.01579 8.14349 
v -4.29077 7.01579 16.248 
v -4.29077 14.1718 8.14349 
v -4.29077 14.1718 16.248 
v -4.2113 7.12295 8.00585 
v -4.2113 7.12294 16.3857 
v -4.2113 14.0646 8.00585 
v -4.2113 14.0646 16.3857 
v -4.15772 7.28188 7.91306 
v -4.15772 7.28188 16.4785 
v -4.15772 13.9057 7.91306 
v -4.15772 13.9057 16.4785 
v -4.13807 7.4765 7.87903 
v -4.13807 7.4765 16.5125 
v -4.13807 13.7111 7.87903 
v -4.13807 13.7111 16.5125 
v 2.33826 6.9765 12.1958 
v 2.33826 14.2111 12.1958 
v 2.43557 7.01579 12.0272 
v 2.43557 7.01579 12.3643 
v 2.43557 14.1718 12.0272 
v 2.43557 14.1718 12.3643 
v 2.51504 7.12295 11.8896 
v 2.51504 7.12295 12.5019 
v 2.51504 14.0646 11.8896 
v 2.51504 14.0646 12.5019 
v 2.54498 7.02121 12.1931 
v 2.54498 14.1664 12.1984 
v 2.56862 7.28188 11.7968 
v 2.56862 7.28188 12.5947 
v 2.56862 13.9057 11.7968 
v 2.56862 13.9057 12.5947 
v 2.58827 7.4765 11.7628 
v 2.58827 7.4765 12.6288 
v 2.58827 13.7111 11.7628 
v 2.58827 13.7111 12.6288 
v 2.62174 7.09854 12.0321 
v 2.62174 7.09854 12.3594 
v 2.62174 14.0891 12.0321 
v 2.62174 14.0891 12.3594 
v 2.69182 7.12295 12.1958 
v 2.69182 14.0646 12.1958 
v 2.72837 7.25901 12.4206 
v 2.72837 13.9286 11.9709 
v 2.73444 7.26881 11.972 
v 2.73444 13.9188 12.4195 
v 2.77576 7.4765 11.9522 
v 2.77576 7.4765 12.4393 
v 2.77576 13.7111 11.9522 
v 2.77576 13.7111 12.4393 
v 2.8002 7.28516 12.1958 
v 2.8002 13.9024 12.1958 
v 2.83826 7.4765 12.1958 
v 2.83826 13.7111 12.1958 
# 114 
vn -0.985925 -0.100337 -0.133733 
vn -0.985925 0.100336 0.133732 
vn -0.985729 -0.101318 0.134439 
vn -0.985729 0.101318 -0.13444 
vn -0.911809 -0.390895 -0.125723 
vn -0.911809 0.390893 0.125722 
vn -0.910979 -0.393243 0.124407 
vn -0.910979 0.393243 -0.124407 
vn -0.858196 -0.106719 0.502106 
vn -0.858197 0.106719 -0.502104 
vn -0.857969 -0.103644 -0.503138 
vn -0.857968 0.103644 0.503139 
vn -0.790859 -0.401715 -0.4617 
vn -0.790859 0.401715 0.4617 
vn -0.789961 -0.406663 0.458899 
vn -0.789962 0.406664 -0.458896 
vn -0.683275 -0.722879 -0.102864 
vn -0.683277 0.722877 0.102864 
vn -0.681693 -0.724547 0.10162 
vn -0.681693 0.724546 -0.10162 
vn -0.559188 -0.734702 -0.384086 
vn -0.559189 0.7347 0.384088 
vn -0.556897 -0.736977 0.383054 
vn -0.556897 0.73698 -0.38305 
vn -0.498512 -0.10648 0.860319 
vn -0.498512 0.10648 -0.860318 
vn -0.495776 -0.106479 -0.861898 
vn -0.495776 0.10648 0.861898 
vn -0.457527 -0.406474 0.790853 
vn -0.457528 0.406475 -0.790852 
vn -0.45611 -0.406474 -0.791671 
vn -0.45611 0.406475 0.79167 
vn -0.370986 -0.672356 -0.640552 
vn -0.370985 0.672356 0.640553 
vn -0.369223 -0.672354 0.641572 
vn -0.369223 0.672358 -0.641567 
vn -0.343696 -0.934585 -0.0917873 
vn -0.343697 0.934584 0.0917879 
vn -0.342622 -0.934904 0.0925511 
vn -0.342623 0.934903 -0.0925499 
vn -0.204 -0.913982 -0.350743 
vn -0.203999 0.913981 0.350746 
vn -0.201743 -0.913982 0.352048 
vn -0.201744 0.913982 -0.352045 
vn -0.0532658 -0.736979 -0.673814 
vn -0.0532646 0.736977 0.673816 
vn -0.0530144 -0.734699 0.676319 
vn -0.0530149 0.734701 -0.676316 
vn -0.0516868 -0.994642 -0.089528 
vn -0.0516863 -0.994642 0.0895273 
vn -0.0516869 0.994642 -0.0895258 
vn -0.0516866 0.994642 0.0895276 
vn -0.00671565 -0.103645 0.994592 
vn -0.00671579 0.103645 -0.994592 
vn -0.00570609 -0.106719 -0.994273 
vn -0.00570665 0.106719 0.994273 
vn -0.00438599 -0.401714 0.915755 
vn -0.00438636 0.401715 -0.915754 
vn -0.00240833 -0.406663 -0.913575 
vn -0.00240872 0.406663 0.913575 
vn 0.0911692 -0.934903 -0.342993 
vn 0.0911708 0.934903 0.342992 
vn 0.0923698 -0.934584 0.34354 
vn 0.0923688 0.934585 -0.34354 
vn 0.103383 -0.994642 4.79888e-007 
vn 0.103382 0.994642 -6.67824e-007 
vn 0.25135 -0.934582 -0.251754 
vn 0.251351 0.934582 0.251753 
vn 0.251475 -0.934901 0.25044 
vn 0.251476 0.934901 -0.250441 
vn 0.252576 -0.722877 0.643159 
vn 0.252575 0.722877 -0.64316 
vn 0.25286 -0.724547 -0.641166 
vn 0.252861 0.724546 0.641167 
vn 0.347052 -0.390892 0.852501 
vn 0.347052 0.390894 -0.852501 
vn 0.347776 -0.393243 -0.851124 
vn 0.347777 0.393242 0.851124 
vn 0.376464 -0.101318 -0.920874 
vn 0.376466 0.101318 0.920873 
vn 0.377176 -0.100336 0.92069 
vn 0.377175 0.100337 -0.920691 
vn 0.405776 -0.913972 -0.00130365 
vn 0.405776 0.913972 0.0013026 
vn 0.42887 -0.724543 0.539544 
vn 0.42887 0.724542 -0.539545 
vn 0.430739 -0.722873 -0.540295 
vn 0.43074 0.722873 0.540294 
vn 0.563248 -0.393239 0.726715 
vn 0.563247 0.39324 -0.726715 
vn 0.564802 -0.390892 -0.726775 
vn 0.564802 0.390891 0.726775 
vn 0.608797 -0.100337 -0.786955 
vn 0.608798 0.100337 0.786955 
vn 0.609312 -0.101317 0.786431 
vn 0.60931 0.101318 -0.786432 
vn 0.610201 -0.736963 0.290759 
vn 0.6102 0.736963 -0.290761 
vn 0.612242 -0.734685 -0.292228 
vn 0.612243 0.734685 0.292228 
vn 0.740247 -0.672335 -0.00101805 
vn 0.740247 0.672335 0.00101705 
vn 0.792405 -0.406652 0.454673 
vn 0.792405 0.406652 -0.454674 
vn 0.795281 -0.401705 -0.45405 
vn 0.795281 0.401705 0.45405 
vn 0.863937 -0.106716 0.492162 
vn 0.863937 0.106716 -0.492164 
vn 0.864717 -0.103643 -0.491449 
vn 0.864718 0.103643 0.491448 
vn 0.913669 -0.406459 0.000817937 
vn 0.913669 0.406458 -0.0008176 
vn 0.994314 -0.106475 0.00157923 
vn 0.994314 0.106475 -0.00157888 
usemtl def_surf_mat
f 85//86 81//70 88//84 99//98 
f 81//70 78//66 82//68 88//84 
f 99//98 88//84 100//100 102//102 
f 88//84 82//68 86//88 100//100 
f 86//88 92//92 106//106 100//100 
f 92//92 96//94 110//110 106//106 
f 100//100 106//106 112//112 102//102 
f 106//106 110//110 114//114 112//112 
f 114//114 109//108 104//104 112//112 
f 109//108 95//96 91//90 104//104 
f 112//112 104//104 99//98 102//102 
f 104//104 91//90 85//86 99//98 
f 67//72 71//76 50//58 58//48 
f 71//76 75//82 47//54 50//58 
f 58//48 50//58 31//30 39//36 
f 50//58 47//54 27//26 31//30 
f 27//26 11//10 16//16 31//30 
f 11//10 3//4 7//8 16//16 
f 31//30 16//16 23//24 39//36 
f 16//16 7//8 19//20 23//24 
f 19//20 35//40 44//44 23//24 
f 35//40 56//51 63//64 44//44 
f 23//24 44//44 58//48 39//36 
f 44//44 63//64 67//72 58//48 
f 68//74 64//62 42//42 59//46 
f 64//62 60//52 36//38 42//42 
f 59//46 42//42 24//22 40//34 
f 42//42 36//38 20//18 24//22 
f 20//18 8//6 14//14 24//22 
f 8//6 4//2 12//12 14//14 
f 24//22 14//14 32//32 40//34 
f 14//14 12//12 28//28 32//32 
f 28//28 48//56 52//60 32//32 
f 48//56 76//80 72//78 52//60 
f 32//32 52//60 59//46 40//34 
f 52//60 72//78 68//74 59//46 
f 113//113 108//107 103//103 111//111 
f 108//107 94//95 90//89 103//103 
f 111//111 103//103 98//97 101//101 
f 103//103 90//89 84//85 98//97 
f 84//85 80//69 87//83 98//97 
f 80//69 77//65 79//67 87//83 
f 98//97 87//83 97//99 101//101 
f 87//83 79//67 83//87 97//99 
f 83//87 89//91 105//105 97//99 
f 89//91 93//93 107//109 105//105 
f 97//99 105//105 111//111 101//101 
f 105//105 107//109 113//113 111//111 
f 25//27 45//55 51//59 29//31 
f 45//55 73//79 69//77 51//59 
f 29//31 51//59 55//45 37//33 
f 51//59 69//77 65//73 55//45 
f 65//73 61//61 41//41 55//45 
f 61//61 53//49 33//37 41//41 
f 55//45 41//41 21//21 37//33 
f 41//41 33//37 17//17 21//21 
f 17//17 5//5 13//13 21//21 
f 5//5 1//1 9//11 13//13 
f 21//21 13//13 29//31 37//33 
f 13//13 9//11 25//27 29//31 
f 26//25 10//9 15//15 30//29 
f 10//9 2//3 6//7 15//15 
f 30//29 15//15 22//23 38//35 
f 15//15 6//7 18//19 22//23 
f 18//19 34//39 43//43 22//23 
f 34//39 54//50 62//63 43//43 
f 22//23 43//43 57//47 38//35 
f 43//43 62//63 66//71 57//47 
f 66//71 70//75 49//57 57//47 
f 70//75 74//81 46//53 49//57 
f 57//47 49//57 30//29 38//35 
f 49//57 46//53 26//25 30//29 
f 95//96 75//82 71//76 91//90 
f 91//90 71//76 67//72 85//86 
f 85//86 67//72 63//64 81//70 
f 81//70 63//64 56//51 78//66 
f 78//66 60//52 64//62 82//68 
f 82//68 64//62 68//74 86//88 
f 86//88 68//74 72//78 92//92 
f 92//92 72//78 76//80 96//94 
f 96//94 94//95 108//107 110//110 
f 110//110 108//107 113//113 114//114 
f 114//114 113//113 107//109 109//108 
f 109//108 107//109 93//93 95//96 
f 3//4 4//2 8//6 7//8 
f 7//8 8//6 20//18 19//20 
f 19//20 20//18 36//38 35//40 
f 35//40 36//38 60//52 56//51 
f 75//82 73//79 45//55 47//54 
f 47//54 45//55 25//27 27//26 
f 27//26 25//27 9//11 11//10 
f 11//10 9//11 1//1 3//4 
f 4//2 2//3 10//9 12//12 
f 12//12 10//9 26//25 28//28 
f 28//28 26//25 46//53 48//56 
f 48//56 46//53 74//81 76//80 
f 77//65 53//49 61//61 79//67 
f 79//67 61//61 65//73 83//87 
f 83//87 65//73 69//77 89//91 
f 89//91 69//77 73//79 93//93 
f 94//95 74//81 70//75 90//89 
f 90//89 70//75 66//71 84//85 
f 84//85 66//71 62//63 80//69 
f 80//69 62//63 54//50 77//65 
f 53//49 54//50 34//39 33//37 
f 33//37 34//39 18//19 17//17 
f 17//17 18//19 6//7 5//5 
f 5//5 6//7 2//3 1//1 
f 95//96 93//93 73//79 75//82 
f 3//4 1//1 2//3 4//2 
f 76//80 74//81 94//95 96//94 
f 78//66 56//51 60//52 
f 53//49 77//65 54//50 
