#Wavefront OBJ file created by Hexagon 2 
mtllib triangular01.mtl
g Shape1
usemtl def_surf_mat
# 72 
v -6.75585 2.56233 -1.1243 
v -6.75585 2.56233 7.90467 
v -6.75585 11.5118 -1.1243 
v -6.75585 11.5118 7.90467 
v -6.73621 11.6091 -1.1243 
v -6.73621 11.6091 7.90467 
v -6.7207 2.56233 -1.25285 
v -6.7207 2.56233 8.03322 
v -6.7207 11.5118 -1.25285 
v -6.7207 11.5118 8.03322 
v -6.7018 11.6156 8.02028 
v -6.70073 11.6205 -1.23702 
v -6.68263 11.6885 -1.1243 
v -6.68263 11.6885 7.90467 
v -6.64759 11.7007 -1.20613 
v -6.64759 11.7007 7.9865 
v -6.63085 2.56233 -1.34081 
v -6.63085 2.56233 8.12118 
v -6.63085 11.5118 -1.34081 
v -6.63085 11.5118 8.12118 
v -6.62134 11.6074 -1.32433 
v -6.62134 11.6074 8.1047 
v -6.60316 11.7421 -1.1243 
v -6.60316 11.7421 7.90467 
v -6.59424 11.6885 -1.27739 
v -6.59424 11.6885 8.05776 
v -6.55868 11.7394 7.99352 
v -6.55639 11.7394 -1.21448 
v -6.50976 2.56233 -1.37464 
v -6.50976 2.56233 8.155 
v -6.50976 11.5118 -1.37464 
v -6.50976 11.5118 8.155 
v -6.508 11.6156 -1.3518 
v -6.50603 11.6205 8.1298 
v -6.50585 11.7007 -1.28797 
v -6.50585 11.7007 8.06833 
v -6.50585 11.7618 -1.1243 
v -6.50585 11.7618 7.90467 
v -6.4572 11.7421 -1.20858 
v -6.4572 11.7421 7.98894 
v -6.41747 11.6885 -1.27739 
v -6.41746 11.6885 8.05776 
v -6.39068 11.6091 -1.32379 
v -6.39068 11.6091 8.10416 
v -6.38085 2.56233 -1.34081 
v -6.38085 2.56233 8.12118 
v -6.38085 11.5118 -1.34081 
v -6.38085 11.5118 8.12118 
v 1.31346 11.7618 3.39018 
v 1.36212 11.7421 3.30591 
v 1.36212 11.7421 3.47446 
v 1.40185 11.6885 3.23709 
v 1.40185 11.6885 3.54328 
v 1.41682 11.7394 3.39151 
v 1.42864 11.6091 3.19069 
v 1.42864 11.6091 3.58968 
v 1.43846 2.56233 3.17368 
v 1.43846 2.56233 3.60669 
v 1.43846 11.5118 3.17368 
v 1.43846 11.5118 3.60669 
v 1.4552 11.7007 3.30835 
v 1.4552 11.7007 3.47202 
v 1.49024 11.6885 3.39018 
v 1.50852 11.6205 3.27777 
v 1.51156 11.6156 3.50207 
v 1.53221 2.56233 3.2684 
v 1.53221 2.56233 3.51197 
v 1.53221 11.5118 3.2684 
v 1.53221 11.5118 3.51197 
v 1.54443 11.6074 3.39018 
v 1.56346 2.56233 3.39018 
v 1.56346 11.5118 3.39018 
# 73 
vn -0.991105 -9.8313e-009 -0.133081 
vn -0.991105 -1.92311e-008 0.133081 
vn -0.985925 0.100336 0.13373 
vn -0.985729 0.101317 -0.134438 
vn -0.91181 0.390891 0.125721 
vn -0.910981 0.39324 -0.124405 
vn -0.862055 1.15679e-008 -0.506814 
vn -0.862054 -2.24953e-008 0.506816 
vn -0.858201 0.106718 -0.502098 
vn -0.857973 0.103644 0.50313 
vn -0.790864 0.401712 0.461694 
vn -0.789966 0.406659 -0.458892 
vn -0.683276 0.722879 0.10286 
vn -0.681693 0.724547 -0.101618 
vn -0.559195 0.734698 0.384084 
vn -0.556903 0.736976 -0.383048 
vn -0.5 1.5486e-008 -0.866025 
vn -0.499998 -9.84846e-009 0.866027 
vn -0.498524 0.106478 -0.860312 
vn -0.495789 0.106479 0.861891 
vn -0.45754 0.40647 -0.790847 
vn -0.456124 0.406471 0.791664 
vn -0.370998 0.67235 0.640552 
vn -0.369235 0.672352 -0.641567 
vn -0.343697 0.934584 0.0917841 
vn -0.342622 0.934904 -0.0925498 
vn -0.204008 0.913981 0.350741 
vn -0.201751 0.913981 -0.352043 
vn -0.0532813 0.736975 0.673817 
vn -0.0530309 0.734699 -0.676317 
vn -0.0516907 0.994642 -0.0895293 
vn -0.0516905 0.994642 0.0895319 
vn -0.00788654 1.17566e-010 -0.999969 
vn -0.00788704 6.02722e-011 0.999969 
vn -0.00673754 0.103644 -0.994592 
vn -0.00572941 0.106718 0.994273 
vn -0.00440602 0.401712 -0.915755 
vn -0.0024289 0.406658 0.913577 
vn 4.73086e-018 -1 -3.06543e-008 
vn 0.0911585 0.934903 0.342995 
vn 0.0923571 0.934585 -0.343543 
vn 0.103381 0.994642 9.35278e-007 
vn 0.25134 0.934583 0.251758 
vn 0.251465 0.934903 -0.250445 
vn 0.252556 0.722879 -0.643165 
vn 0.252843 0.724548 0.641171 
vn 0.347029 0.390894 -0.85251 
vn 0.347753 0.393241 0.851134 
vn 0.376438 0.101319 0.920885 
vn 0.377149 0.100338 -0.920702 
vn 0.380301 -1.7063e-009 -0.924863 
vn 0.3803 -9.04894e-010 0.924863 
vn 0.405759 0.913979 0.00130248 
vn 0.428853 0.724547 -0.539552 
vn 0.430721 0.722877 0.540303 
vn 0.563229 0.393242 -0.726728 
vn 0.564783 0.390893 0.72679 
vn 0.608777 0.100338 0.786971 
vn 0.60929 0.101318 -0.786448 
vn 0.610183 0.736975 -0.290765 
vn 0.610804 2.34453e-009 -0.791782 
vn 0.610804 -5.56564e-009 0.791782 
vn 0.612224 0.734697 0.292236 
vn 0.740231 0.672352 0.00101905 
vn 0.792395 0.406659 -0.454685 
vn 0.795269 0.401711 0.454065 
vn 0.863929 0.106717 -0.492176 
vn 0.86471 0.103644 0.491461 
vn 0.869942 1.73631e-009 -0.493155 
vn 0.869942 -6.25369e-009 0.493154 
vn 0.913664 0.40647 -0.000816475 
vn 0.994314 0.106477 -0.00157958 
vn 1 -9.22768e-010 -1.30763e-007 
usemtl def_surf_mat
f 52//54 50//44 54//53 61//60 
f 50//44 49//42 51//43 54//53 
f 61//60 54//53 62//63 63//64 
f 54//53 51//43 53//55 62//63 
f 53//55 56//57 65//66 62//63 
f 56//57 60//58 69//68 65//66 
f 62//63 65//66 70//71 63//64 
f 65//66 69//68 72//72 70//71 
f 72//72 68//67 64//65 70//71 
f 68//67 59//59 55//56 64//65 
f 70//71 64//65 61//60 63//64 
f 64//65 55//56 52//54 61//60 
f 41//45 43//47 33//37 35//30 
f 43//47 47//50 31//35 33//37 
f 35//30 33//37 21//21 25//24 
f 33//37 31//35 19//19 21//21 
f 19//19 9//9 12//12 21//21 
f 9//9 3//4 5//6 12//12 
f 21//21 12//12 15//16 25//24 
f 12//12 5//6 13//14 15//16 
f 13//14 23//26 28//28 15//16 
f 23//26 37//31 39//41 28//28 
f 15//16 28//28 35//30 25//24 
f 28//28 39//41 41//45 35//30 
f 42//46 40//40 27//27 36//29 
f 40//40 38//32 24//25 27//27 
f 36//29 27//27 16//15 26//23 
f 27//27 24//25 14//13 16//15 
f 14//13 6//5 11//11 16//15 
f 6//5 4//3 10//10 11//11 
f 16//15 11//11 22//22 26//23 
f 11//11 10//10 20//20 22//22 
f 20//20 32//36 34//38 22//22 
f 32//36 48//49 44//48 34//38 
f 22//22 34//38 36//29 26//23 
f 34//38 44//48 42//46 36//29 
f 59//59 47//50 43//47 55//56 
f 55//56 43//47 41//45 52//54 
f 52//54 41//45 39//41 50//44 
f 50//44 39//41 37//31 49//42 
f 49//42 38//32 40//40 51//43 
f 51//43 40//40 42//46 53//55 
f 53//55 42//46 44//48 56//57 
f 56//57 44//48 48//49 60//58 
f 60//58 58//62 67//70 69//68 
f 69//68 67//70 71//73 72//72 
f 72//72 71//73 66//69 68//67 
f 68//67 66//69 57//61 59//59 
f 3//4 4//3 6//5 5//6 
f 5//6 6//5 14//13 13//14 
f 13//14 14//13 24//25 23//26 
f 23//26 24//25 38//32 37//31 
f 47//50 45//51 29//33 31//35 
f 31//35 29//33 17//17 19//19 
f 19//19 17//17 7//7 9//9 
f 9//9 7//7 1//1 3//4 
f 4//3 2//2 8//8 10//10 
f 10//10 8//8 18//18 20//20 
f 20//20 18//18 30//34 32//36 
f 32//36 30//34 46//52 48//49 
f 59//59 57//61 45//51 47//50 
f 3//4 1//1 2//2 4//3 
f 48//49 46//52 58//62 60//58 
f 49//42 37//31 38//32 
f 1//39 7//39 17//39 29//39 45//39 57//39 66//39 71//39 67//39 58//39 46//39 30//39 18//39 8//39 2//39 
