#Wavefront OBJ file created by Hexagon 2 
mtllib twentyfour.mtl
g Shape21
usemtl def_surf_mat
# 48 
v -3.168 2.80536 12.1958 
v -3.168 8.10168 12.1958 
v -2.97021 2.80536 13.6981 
v -2.97021 8.10168 13.6981 
v -2.97021 2.80536 10.6934 
v -2.97021 8.10168 10.6934 
v -2.39033 2.80536 15.0981 
v -2.39033 8.10168 15.0981 
v -2.39033 2.80536 9.29347 
v -2.39033 8.10168 9.29347 
v -1.46788 2.80536 16.3002 
v -1.46788 8.10168 16.3002 
v -1.46788 2.80536 8.0913 
v -1.46788 8.10168 8.0913 
v -0.265706 2.80536 17.2227 
v -0.265706 8.10168 17.2227 
v -0.265707 2.80536 7.16885 
v -0.265707 8.10168 7.16885 
v 1.13425 2.80536 17.8026 
v 1.13425 8.10168 17.8026 
v 1.13425 2.80536 6.58897 
v 1.13425 8.10168 6.58897 
v 2.63659 2.80536 18.0003 
v 2.63659 8.10168 18.0003 
v 2.63659 2.80536 6.39118 
v 2.63659 8.10168 6.39118 
v 4.13892 2.80536 17.8026 
v 4.13892 8.10168 17.8026 
v 4.13892 2.80536 6.58897 
v 4.13892 8.10168 6.58897 
v 5.53888 2.80536 17.2227 
v 5.53888 8.10168 17.2227 
v 5.53888 2.80536 7.16885 
v 5.53888 8.10168 7.16885 
v 6.74105 2.80536 16.3002 
v 6.74105 8.10168 16.3002 
v 6.74105 2.80536 8.0913 
v 6.74105 8.10168 8.0913 
v 7.66351 2.80536 15.0981 
v 7.66351 8.10168 15.0981 
v 7.6635 2.80536 9.29347 
v 7.6635 8.10168 9.29347 
v 8.24339 2.80536 13.6981 
v 8.24339 8.10168 13.6981 
v 8.24339 2.80536 10.6934 
v 8.24339 8.10168 10.6934 
v 8.44117 2.80536 12.1958 
v 8.44117 8.10168 12.1958 
# 26 
vn -1 -6.0265e-010 1.50297e-008 
vn -0.965926 -1.63796e-009 0.258819 
vn -0.965926 -3.99184e-009 -0.258819 
vn -0.866025 2.04924e-010 0.5 
vn -0.866025 1.11411e-009 -0.5 
vn -0.707107 1.40467e-008 0.707107 
vn -0.707107 -1.00137e-008 -0.707107 
vn -0.5 1.35448e-008 0.866026 
vn -0.5 -2.31993e-008 -0.866025 
vn -0.258819 -1.13349e-009 0.965926 
vn -0.258819 -3.12809e-008 -0.965926 
vn -7.51487e-009 3.09057e-009 1 
vn 0 -1 0 
vn 9.81934e-009 1 0 
vn -7.51487e-009 3.09057e-009 -1 
vn 0.258819 1.57371e-008 0.965926 
vn 0.258819 2.66599e-008 -0.965926 
vn 0.5 1.71287e-009 0.866025 
vn 0.5 -2.2564e-009 -0.866025 
vn 0.707107 -4.01631e-009 0.707106 
vn 0.707107 -6.13248e-009 -0.707107 
vn 0.866025 1.26478e-009 0.5 
vn 0.866025 -6.72567e-009 -0.5 
vn 0.965926 -3.97103e-009 0.258819 
vn 0.965926 -3.86711e-009 -0.258819 
vn 1 -8.39672e-010 4.50892e-008 
usemtl def_surf_mat
f 48//26 47//26 45//25 46//25 
f 46//25 45//25 41//23 42//23 
f 42//23 41//23 37//21 38//21 
f 38//21 37//21 33//19 34//19 
f 34//19 33//19 29//17 30//17 
f 30//17 29//17 25//15 26//15 
f 26//15 25//15 21//11 22//11 
f 22//11 21//11 17//9 18//9 
f 18//9 17//9 13//7 14//7 
f 14//7 13//7 9//5 10//5 
f 10//5 9//5 5//3 6//3 
f 6//3 5//3 1//1 2//1 
f 2//1 1//1 3//2 4//2 
f 4//2 3//2 7//4 8//4 
f 8//4 7//4 11//6 12//6 
f 12//6 11//6 15//8 16//8 
f 16//8 15//8 19//10 20//10 
f 20//10 19//10 23//12 24//12 
f 24//12 23//12 27//16 28//16 
f 28//16 27//16 31//18 32//18 
f 32//18 31//18 35//20 36//20 
f 36//20 35//20 39//22 40//22 
f 40//22 39//22 43//24 44//24 
f 44//24 43//24 47//26 48//26 
f 48//14 46//14 42//14 38//14 34//14 30//14 26//14 22//14 18//14 14//14 10//14 6//14 2//14 4//14 8//14 12//14 16//14 20//14 24//14 28//14 32//14 36//14 40//14 44//14 
f 45//13 47//13 43//13 39//13 35//13 31//13 27//13 23//13 19//13 15//13 11//13 7//13 3//13 1//13 5//13 9//13 13//13 17//13 21//13 25//13 29//13 33//13 37//13 41//13 
